<?xml version="1.0" encoding="UTF-8"?>
<svg version="1.1" xmlns="http://www.w3.org/2000/svg" width="2048" height="2048">
<path d="M0 0 C675.84 0 1351.68 0 2048 0 C2048 675.84 2048 1351.68 2048 2048 C1372.16 2048 696.32 2048 0 2048 C0 1372.16 0 696.32 0 0 Z " fill="#FEFEFE" transform="translate(0,0)"/>
<path d="M0 0 C5.94603979 3.69688561 10.09088277 8.95951603 11.9609375 15.71875 C18.5791481 53.475099 -4.13554668 96.2267884 -19.5625 129.4375 C-20.17810791 130.77723877 -20.17810791 130.77723877 -20.80615234 132.14404297 C-27.66032118 147.02436365 -35.31372325 161.28801357 -43.5625 175.4375 C-44.62510446 177.27988767 -45.68760547 179.12233501 -46.75 180.96484375 C-54.56306976 194.42821238 -62.9546882 207.4711796 -71.5625 220.4375 C-72.60819579 222.01945004 -73.65377682 223.60147594 -74.69921875 225.18359375 C-81.35773638 235.23273638 -81.35773638 235.23273638 -82.5625 236.4375 C-83.62499968 242.41358427 -83.72184917 248.48624615 -83.73046875 254.5390625 C-83.73379715 255.37859467 -83.73712555 256.21812683 -83.74055481 257.08309937 C-83.74558342 258.84950214 -83.7479644 260.61591429 -83.74780273 262.38232422 C-83.74997745 265.03499695 -83.76814465 267.68724493 -83.78710938 270.33984375 C-84.33392029 290.72476008 -84.33392029 290.72476008 -77.5625 309.4375 C-73.77241318 311.96422455 -72.07052658 311.88091245 -67.5625 311.4375 C-51.5455624 306.37614772 -42.77812801 287.28044843 -35.5625 273.4375 C-31.96841454 266.30270659 -30.04273207 259.40610236 -28.71411133 251.5703125 C-24.84058016 229.33640181 -13.49517326 209.18956823 2.1875 193.1875 C2.8256665 192.53064209 3.46383301 191.87378418 4.12133789 191.19702148 C7.60960048 187.7562991 9.56264342 186.31427277 14.4375 185.4375 C15.67432864 183.13026671 15.67432864 183.13026671 16.4375 180.4375 C23.26007969 167.97790366 33.34556836 161.70210787 46.13671875 156.296875 C57.60617468 153.31074446 72.90773339 153.92435391 83.4375 159.4375 C95.77573724 166.69023772 102.8725625 178.85219765 106.4375 192.4375 C111.99276597 221.75292873 104.66210654 250.59101838 93.4375 277.4375 C103.21696815 274.53839537 111.89368939 271.18091138 120.4375 265.4375 C121.09105469 265.00050781 121.74460937 264.56351563 122.41796875 264.11328125 C135.11743104 254.43611662 139.75487809 239.0901983 143.1875 224.25 C154.51752456 177.42217374 154.51752456 177.42217374 165.6875 170.125 C172.52548226 166.66498098 180.07884919 166.05897658 187.4140625 168.37890625 C193.92575623 171.37203348 193.92575623 171.37203348 195.4375 174.51953125 C195.4375 179.10021905 193.53685531 182.77062709 191.75 186.9375 C187.3524498 197.66197443 183.63288428 208.54052664 180.0625 219.5625 C179.67525253 220.74622192 179.67525253 220.74622192 179.28018188 221.95385742 C176.20336173 231.37339897 173.44789062 240.72382349 171.4375 250.4375 C171.8560022 249.5559021 171.8560022 249.5559021 172.28295898 248.65649414 C175.61949419 241.79071179 179.43095842 235.32919755 183.5 228.875 C184.48963745 227.30226318 184.48963745 227.30226318 185.49926758 225.69775391 C194.53709047 211.43737529 204.04386398 197.91771206 215.4375 185.4375 C215.88947754 184.93492676 216.34145508 184.43235352 216.80712891 183.91455078 C226.54815657 173.18483904 239.42560024 163.04472602 254.2109375 161.06640625 C261.9754611 160.70754171 268.8933112 162.25544774 274.76953125 167.53125 C282.90725246 176.32878644 283.02966479 183.70206465 282.82421875 195.25 C282.4257144 204.35373846 280.32999914 213.05826278 278.09130859 221.86035156 C277.50806305 224.15935828 276.95825383 226.46225681 276.42578125 228.7734375 C274.98539266 234.92720681 273.30648149 240.93853623 271.32446289 246.93676758 C260.87721733 276.72524542 260.87721733 276.72524542 262.4375 307.4375 C265.42931417 308.93340709 267.0791206 308.86493011 270.4375 308.4375 C282.63019241 302.42982792 289.39674004 290.49440942 296.4375 279.4375 C296.99026611 278.57390869 296.99026611 278.57390869 297.55419922 277.69287109 C303.6827872 268.03578715 308.91264997 257.92991935 314.09692383 247.74072266 C314.89779419 246.17330322 314.89779419 246.17330322 315.71484375 244.57421875 C316.19171631 243.63280029 316.66858887 242.69138184 317.15991211 241.72143555 C318.4375 239.4375 318.4375 239.4375 320.4375 237.4375 C323.62441353 237.36507015 325.6492177 237.8327424 328.19921875 239.7890625 C331.32272741 242.97809931 332.44131176 244.29397256 332.42578125 248.953125 C331.45674268 254.76132923 328.76726786 259.88494769 326.1875 265.125 C325.65318359 266.22062256 325.11886719 267.31624512 324.56835938 268.44506836 C311.93761414 293.85543693 295.92699537 322.43979378 268.5 333.63671875 C260.35743584 335.7658331 249.87975477 335.85107049 242.39453125 331.7578125 C234.49145129 326.42599409 229.85397514 321.15159218 227.8515625 311.66015625 C224.8216359 288.07818033 231.46374676 263.77907403 238.75634766 241.53027344 C246.4151222 218.96767563 246.4151222 218.96767563 248.4375 195.4375 C246.54111588 193.16465994 246.54111588 193.16465994 243.4375 192.875 C235.1208015 193.16772024 227.69428338 201.58334661 222.26953125 207.1875 C203.90591117 227.66410286 189.78520394 252.14900111 176.67382812 276.18652344 C175.47109603 278.37633187 174.24544504 280.55188072 173.015625 282.7265625 C165.74921195 295.75547317 160.86595348 309.22388353 158.2734375 323.93359375 C157.23373228 327.04785096 156.33792179 327.93247013 153.4375 329.4375 C146.97184702 330.46276783 140.98221494 329.8880774 135.15625 326.8984375 C131.55572138 323.83798817 129.6776862 321.40942521 129.10498047 316.70751953 C129.00617452 313.40036559 129.04052978 310.11997828 129.125 306.8125 C129.13466797 305.70003906 129.14433594 304.58757812 129.15429688 303.44140625 C129.2529463 296.07272344 129.73036401 288.77143914 130.4375 281.4375 C129.69604736 281.92355713 128.95459473 282.40961426 128.19067383 282.91040039 C117.76756301 289.71035462 107.45741093 295.72914672 94.86328125 296.8984375 C85.65976058 297.53709574 85.65976058 297.53709574 77.78515625 301.72265625 C75.83279787 304.48402562 75.83279787 304.48402562 74.16015625 307.46484375 C67.367245 319.1868516 51.50109976 330.22382007 38.45141602 334.0144043 C24.42803698 337.28091351 8.65893997 337.09026605 -4.140625 330.01171875 C-6.37340365 328.58111389 -8.46636778 327.05976119 -10.5625 325.4375 C-12.109375 324.3546875 -12.109375 324.3546875 -13.6875 323.25 C-19.72279592 318.05527454 -23.93218862 309.86426153 -26.5625 302.4375 C-26.5625 301.4475 -26.5625 300.4575 -26.5625 299.4375 C-29.22456805 301.91059408 -31.22166294 304.66019305 -33.3125 307.625 C-42.13522734 319.76622153 -53.11254747 331.46108329 -68.5625 334.4375 C-79.84504953 335.75663881 -88.47587098 334.82385722 -97.6953125 327.81640625 C-110.83398125 316.20142342 -115.02444105 296.03525574 -116.25634766 279.26904297 C-116.41922992 276.32576716 -116.51664367 273.38481112 -116.5625 270.4375 C-116.85793701 270.92927734 -117.15337402 271.42105469 -117.45776367 271.92773438 C-131.13104138 294.52680607 -149.54263884 322.71753967 -176.5625 330.4375 C-186.60046956 332.36467924 -196.55809461 332.81675517 -205.5625 327.4375 C-214.18971943 321.40884064 -220.82537477 313.0243421 -223.2109375 302.60546875 C-223.5 300.125 -223.5 300.125 -223.5625 296.4375 C-224.2225 296.4375 -224.8825 296.4375 -225.5625 296.4375 C-225.81 297.14519531 -226.0575 297.85289062 -226.3125 298.58203125 C-232.94935509 313.7430971 -247.85056965 326.47359804 -262.75 332.875 C-272.00466258 335.93778948 -283.56091376 336.08164215 -292.44921875 331.82421875 C-299.04535076 327.49588814 -303.2711695 320.91512158 -305.5625 313.4375 C-308.04083334 299.69101108 -306.77783139 285.93825283 -303.5625 272.4375 C-303.3154834 271.39174805 -303.0684668 270.34599609 -302.81396484 269.26855469 C-299.82144034 256.719937 -296.68456709 244.25769624 -292.69140625 231.98828125 C-289.42068629 221.70079182 -286.38908959 211.43172046 -286.5 200.5625 C-286.51353516 198.83386719 -286.51353516 198.83386719 -286.52734375 197.0703125 C-286.53894531 196.20148438 -286.55054688 195.33265625 -286.5625 194.4375 C-289.79010391 192.82369805 -291.96829169 193.03814352 -295.5625 193.4375 C-307.65131403 199.2066608 -315.83985392 210.93170225 -323.5625 221.4375 C-324.16747314 222.25130127 -324.16747314 222.25130127 -324.78466797 223.08154297 C-346.72377169 252.66086661 -369.68890647 287.21279137 -376.625 323.875 C-377.5625 327.4375 -377.5625 327.4375 -379.23046875 328.6328125 C-384.77265944 330.54519321 -391.61877077 330.58127096 -397.0859375 328.45703125 C-400.66992659 326.29198208 -403.39480017 324.0648258 -405.5625 320.4375 C-406.29296875 316.984375 -406.29296875 316.984375 -406.75 313.1875 C-406.98783203 311.29257813 -406.98783203 311.29257813 -407.23046875 309.359375 C-407.34003906 308.39515625 -407.44960938 307.4309375 -407.5625 306.4375 C-408.03558594 307.13875 -408.50867188 307.84 -408.99609375 308.5625 C-416.65561822 319.55160333 -425.92766125 329.16947197 -439.56640625 332.078125 C-449.91156221 333.3190042 -458.09676917 332.67000143 -466.9375 326.8828125 C-473.93326422 321.37601161 -477.10340955 314.45760722 -480.5625 306.4375 C-481.09037109 305.29861328 -481.09037109 305.29861328 -481.62890625 304.13671875 C-484.31335746 296.37539746 -484.91267571 288.46562054 -485.1875 280.3125 C-485.22617187 279.35601563 -485.26484375 278.39953125 -485.3046875 277.4140625 C-485.39770128 275.08871801 -485.48353771 272.76335665 -485.5625 270.4375 C-486.10777344 271.30890625 -486.65304687 272.1803125 -487.21484375 273.078125 C-502.27054834 296.94585485 -519.71448784 321.15482928 -547.5625 330.4375 C-559.45831508 331.21193407 -569.19075197 330.96153084 -578.875 323.25 C-584.09245679 318.34875272 -587.18725841 312.13136267 -589.5625 305.4375 C-590.13484375 306.16195313 -590.7071875 306.88640625 -591.296875 307.6328125 C-601.60389969 320.39219824 -612.24278465 331.07222645 -628.5625 335.4375 C-631.50527877 335.73384624 -634.4189132 335.77157503 -637.375 335.75 C-638.17671631 335.74436035 -638.97843262 335.7387207 -639.80444336 335.73291016 C-645.5156768 335.61548836 -650.4431755 335.15135877 -655.5625 332.4375 C-656.32820312 332.0353125 -657.09390625 331.633125 -657.8828125 331.21875 C-666.42259053 326.14561453 -670.62526379 318.71298278 -673.5625 309.4375 C-679.1639607 285.25136687 -670.81742538 261.41128146 -662.12890625 239.19140625 C-661.27317745 237.00270582 -660.41771189 234.81390246 -659.5625 232.625 C-659.138479 231.5412207 -658.71445801 230.45744141 -658.27758789 229.34082031 C-654.11240788 218.54867152 -650.73022803 207.55811131 -647.5625 196.4375 C-663.0377263 193.30820289 -663.0377263 193.30820289 -678.5625 190.4375 C-679.03558594 191.66082031 -679.50867188 192.88414062 -679.99609375 194.14453125 C-706.17679168 261.15369196 -706.17679168 261.15369196 -730.5625 282.4375 C-734.79958603 282.51316225 -736.81795794 282.07036075 -740.0625 279.3125 C-742.09221246 275.42221779 -741.58380567 273.69509496 -740.5625 269.4375 C-739.02275023 266.40443618 -737.15081229 263.6295482 -735.25 260.8125 C-734.14518387 259.11148383 -733.04372595 257.40828265 -731.9453125 255.703125 C-731.38102539 254.82978516 -730.81673828 253.95644531 -730.23535156 253.05664062 C-708.06307006 219.5294873 -708.06307006 219.5294873 -697.69140625 182.23828125 C-698.83870063 179.86652023 -700.28760142 178.78306255 -702.375 177.1875 C-708.65196472 171.94359566 -711.99974706 164.53499462 -712.8984375 156.39453125 C-713.03079281 145.73992887 -711.07438632 136.90744977 -703.45703125 129.09765625 C-697.09544371 123.52306923 -691.32886084 122.77930173 -682.9140625 123.05859375 C-678.53135215 123.55407499 -674.82258821 124.35509432 -671.5625 127.4375 C-667.50702103 133.07896092 -666.9802044 137.34415393 -667.1875 144.1875 C-667.20039062 145.06696289 -667.21328125 145.94642578 -667.2265625 146.85253906 C-667.37588544 153.17776563 -667.98411635 159.29307794 -669.5625 165.4375 C-658.87747601 168.03620337 -648.29974169 170.07280487 -637.35302734 171.22192383 C-630.05017225 172.07945093 -622.91841609 173.68392783 -617.125 178.4375 C-616.609375 179.0975 -616.09375 179.7575 -615.5625 180.4375 C-615.02625 181.0975 -614.49 181.7575 -613.9375 182.4375 C-609.23330589 189.27996416 -609.78023977 196.53615074 -611.0625 204.5703125 C-612.4125385 210.44604825 -614.51808713 215.59310508 -617.03979492 221.04736328 C-619.90037496 227.41613263 -622.50354172 233.89272076 -625.12866211 240.36132812 C-626.12118387 242.80311164 -627.12197496 245.24139912 -628.12304688 247.6796875 C-631.71936557 256.49480169 -635.02166434 265.25095077 -637.5625 274.4375 C-637.75465088 275.13149902 -637.94680176 275.82549805 -638.14477539 276.54052734 C-641.03774817 287.57426169 -642.7288432 298.9061081 -637.5625 309.4375 C-635.11299379 311.88700621 -634.31526979 311.76021254 -630.9375 311.8125 C-623.32599641 311.65873225 -618.21119792 308.31240369 -612.5625 303.4375 C-600.61032812 290.08035428 -592.39912725 273.73808722 -587.8125 256.5 C-577.88255865 220.86684697 -553.87168219 187.02752134 -521.5625 168.4375 C-508.33376816 161.09791298 -496.84376589 157.26014476 -481.6875 157.25 C-480.73230469 157.23775391 -479.77710938 157.22550781 -478.79296875 157.21289062 C-466.48732045 157.18757036 -454.61209316 160.7491301 -445.5625 169.4375 C-441.1216377 175.16235075 -438.40069551 179.51465355 -438.1875 186.8125 C-438.13851563 187.95460938 -438.08953125 189.09671875 -438.0390625 190.2734375 C-438.5625 193.4375 -438.5625 193.4375 -440.8671875 195.8203125 C-444.41035895 197.94621537 -446.49182375 198.01902518 -450.5625 197.4375 C-454.18534907 195.36730053 -455.90961909 192.96653951 -457.9375 189.4375 C-460.47929196 185.10434989 -463.0554697 183.56345769 -467.5625 181.4375 C-468.2225 181.1075 -468.8825 180.7775 -469.5625 180.4375 C-482.87283807 179.04686766 -492.49075503 183.27966849 -502.91015625 191.27734375 C-528.33297767 211.98252821 -550.60228472 243.09623884 -555.28125 276.25390625 C-556.66248554 289.33847349 -556.66248554 289.33847349 -552.5625 301.4375 C-548.60525865 303.41612067 -543.82568383 303.02710701 -539.61328125 301.9296875 C-509.52000001 288.93342768 -488.2225346 243.82001701 -476.93359375 215.4453125 C-476.1832771 213.52130304 -475.45183875 211.58955439 -474.7578125 209.64453125 C-473.13106505 206.64089625 -471.46262473 205.23841662 -468.5625 203.4375 C-462.30655905 202.35373484 -455.59035784 202.26589586 -450 205.5625 C-448.1875 206.94921875 -448.1875 206.94921875 -446.5625 208.4375 C-446.02625 208.91832031 -445.49 209.39914062 -444.9375 209.89453125 C-443.5 211.375 -443.5 211.375 -441.5625 214.4375 C-441.89953488 218.37519085 -442.99454384 221.94699552 -444.22558594 225.68969727 C-448.22073822 237.98004732 -449.84010317 250.66715778 -451.5625 263.4375 C-451.66852539 264.17307129 -451.77455078 264.90864258 -451.88378906 265.66650391 C-453.64605308 278.40975713 -454.86344174 295.11853255 -447.375 306.25 C-444.65242399 308.78958895 -444.65242399 308.78958895 -440.75 308.6875 C-429.56079376 306.28529753 -422.51805257 294.80719371 -416.59741211 285.9675293 C-410.74818736 276.90936244 -406.12245665 267.19052146 -401.5625 257.4375 C-400.77359375 255.78041016 -400.77359375 255.78041016 -399.96875 254.08984375 C-396.41476029 245.80859207 -394.86812118 237.00334852 -393.00048828 228.22851562 C-382.52445736 179.87353632 -382.52445736 179.87353632 -369.5625 170.4375 C-363.48258715 166.80196028 -356.45141375 166.5786944 -349.5625 167.4375 C-345.6618019 168.7479869 -342.50007302 170.49992698 -339.5625 173.4375 C-339.85777071 179.14846762 -341.76605744 183.71937508 -344 188.875 C-352.04423016 208.21724353 -358.41820896 228.90161009 -362.5625 249.4375 C-362.23121094 248.69371094 -361.89992188 247.94992187 -361.55859375 247.18359375 C-355.75196549 234.85724252 -348.16778876 223.7127367 -340.5625 212.4375 C-339.73878906 211.20652588 -339.73878906 211.20652588 -338.8984375 209.95068359 C-332.94625818 201.09158252 -326.68027156 192.94520748 -319.25390625 185.26953125 C-316.51762431 182.46448318 -316.51762431 182.46448318 -314.06640625 179.359375 C-306.56154673 170.60175422 -296.38434315 165.04478105 -285.5625 161.4375 C-277.19843921 160.8322714 -269.62820062 160.3981225 -262.5625 165.4375 C-261.675625 165.97375 -260.78875 166.51 -259.875 167.0625 C-252.97744459 174.14647583 -251.20402406 183.08431119 -251.18188477 192.60131836 C-251.5175736 210.11955226 -257.52724806 227.28956946 -262.17553711 244.05639648 C-264.6130022 252.85938979 -266.9312524 261.67908161 -269.0625 270.5625 C-269.42686157 272.07142822 -269.42686157 272.07142822 -269.79858398 273.61083984 C-271.62829482 281.34961681 -272.73200892 288.7352394 -272.6875 296.6875 C-272.69136719 297.39390625 -272.69523437 298.1003125 -272.69921875 298.828125 C-272.69327317 301.96739304 -272.56241484 304.43775549 -271.5625 307.4375 C-267.99624868 309.22062566 -264.3284699 308.39863839 -260.5625 307.4375 C-257.49462612 305.83761811 -255.08175394 303.79519858 -252.5625 301.4375 C-251.95019531 300.86644531 -251.33789062 300.29539062 -250.70703125 299.70703125 C-243.29062155 292.04595649 -238.00088597 282.53921654 -232.5625 273.4375 C-232.18061523 272.80602051 -231.79873047 272.17454102 -231.40527344 271.52392578 C-226.47367305 263.26361111 -223.04930837 254.68440722 -219.6875 245.6875 C-206.79462727 211.29583587 -185.53748134 182.05029046 -151.53125 166.16796875 C-138.03270204 160.14649366 -123.75273161 157.73695247 -109.5 162.4375 C-107.84372267 163.07777902 -106.1928594 163.73383814 -104.5625 164.4375 C-104.37880859 162.50003906 -104.37880859 162.50003906 -104.19140625 160.5234375 C-103.63987648 155.60283276 -102.66665893 150.8704918 -101.5 146.0625 C-101.28375977 145.16821289 -101.06751953 144.27392578 -100.84472656 143.35253906 C-89.61473844 97.98338703 -71.67406767 28.78345802 -28.5625 2.4375 C-27.49128906 1.75880859 -27.49128906 1.75880859 -26.3984375 1.06640625 C-18.79142416 -3.05049798 -7.92876664 -3.5222021 0 0 Z " fill="#222E50" transform="translate(1426.5625,860.5625)"/>
<path d="M0 0 C10.56536351 9.84200874 19.25940789 24.2097034 20.0859375 38.87109375 C20.65068103 65.63931988 9.96208769 87.67915726 -7.25 107.75 C-7.93320312 108.55695313 -8.61640625 109.36390625 -9.3203125 110.1953125 C-13.63121274 115.18243239 -18.15777086 119.57176071 -23.25 123.75 C-23.76949219 124.18183594 -24.28898437 124.61367188 -24.82421875 125.05859375 C-43.17473922 140.27509275 -63.0222522 152.95896148 -85.25 161.75 C-84.72535156 161.95753906 -84.20070313 162.16507813 -83.66015625 162.37890625 C-81.95642891 163.05642844 -80.2548821 163.73944207 -78.5546875 164.42578125 C-76.12771845 165.39829012 -73.69657242 166.35111481 -71.2578125 167.29296875 C-46.90076008 176.83223336 -28.09069964 191.58376142 -16.9296875 215.58984375 C-10.0930229 232.02315977 -9.89981813 251.80138814 -15.25 268.75 C-15.47042969 269.45366699 -15.69085937 270.15733398 -15.91796875 270.88232422 C-21.79765801 289.20968896 -30.73563419 305.15943042 -43.25 319.75 C-43.97703125 320.6059375 -44.7040625 321.461875 -45.453125 322.34375 C-47.66605865 324.86813357 -49.93675642 327.31710589 -52.25 329.75 C-52.75370117 330.28093262 -53.25740234 330.81186523 -53.77636719 331.35888672 C-61.51308274 339.45890345 -69.53259905 346.80588699 -78.53515625 353.47509766 C-80.19445551 354.70870539 -81.83189604 355.96730975 -83.46875 357.23046875 C-110.24296715 377.50737926 -143.94273036 391.27392041 -176.25 399.75 C-177.0121582 399.9557666 -177.77431641 400.1615332 -178.55957031 400.37353516 C-193.060209 404.2491604 -207.68279612 406.44220233 -222.55883789 408.34863281 C-225.13723742 408.68026265 -225.13723742 408.68026265 -227.15367126 409.26402283 C-229.32717643 409.76789127 -231.25375196 409.89669246 -233.48242188 409.92700195 C-234.72934059 409.94597534 -234.72934059 409.94597534 -236.00144958 409.96533203 C-236.89815872 409.97290527 -237.79486786 409.98047852 -238.71875 409.98828125 C-239.65868301 409.99802979 -240.59861603 410.00777832 -241.56703186 410.01782227 C-262.46655782 410.18960243 -282.69516226 409.97242592 -303.25 405.75 C-304.70696289 405.46116943 -304.70696289 405.46116943 -306.19335938 405.16650391 C-331.82698803 399.97296066 -356.83605549 389.78196595 -372.7890625 368.0703125 C-379.52052509 357.37916604 -381.61078104 347.49697887 -381.625 335.0625 C-381.64949219 333.95455078 -381.67398437 332.84660156 -381.69921875 331.70507812 C-381.76192718 313.82272441 -372.97666455 298.7530362 -361.25 285.75 C-360.57453125 284.99203125 -359.8990625 284.2340625 -359.203125 283.453125 C-349.0660383 272.70628873 -336.28867076 264.51501906 -323.25 257.75 C-322.5163623 257.36489258 -321.78272461 256.97978516 -321.02685547 256.58300781 C-301.88174465 246.65416358 -275.35688012 233.78334935 -253.25 234.75 C-253.12109375 233.59628906 -252.9921875 232.44257812 -252.859375 231.25390625 C-252.32404678 226.99467768 -251.4928636 222.86144956 -250.5 218.6875 C-250.23884399 217.58233032 -250.23884399 217.58233032 -249.97241211 216.45483398 C-248.49671961 210.39936134 -246.58741086 204.54424328 -244.54296875 198.65625 C-242.80165866 193.53677189 -241.41920321 188.31608614 -240.03735352 183.09008789 C-238.92253177 178.93441393 -237.63681481 174.92280167 -236.08496094 170.90991211 C-235.14198961 168.47059417 -234.2402866 166.01782899 -233.33984375 163.5625 C-195.47452396 60.99028457 -195.47452396 60.99028457 -166.1875 40.9375 C-165.35089844 40.35355469 -164.51429688 39.76960937 -163.65234375 39.16796875 C-157.7864168 35.70564114 -150.86468152 36.06729204 -144.25 36.75 C-138.79560129 38.5442101 -134.30920598 40.74313234 -131.25 45.75 C-131.5065444 49.25610679 -132.2685934 50.7778901 -134.25 53.75 C-134.91 53.75 -135.57 53.75 -136.25 53.75 C-136.50007812 54.306875 -136.75015625 54.86375 -137.0078125 55.4375 C-138.45837679 58.13792158 -140.21858048 60.34777174 -142.125 62.75 C-178.08040805 109.79521565 -201.29857369 174.82257203 -215.25 231.75 C-214.45722656 231.70359375 -213.66445313 231.6571875 -212.84765625 231.609375 C-190.25935902 230.91051056 -163.92727194 235.238782 -145.25 248.75 C-144.321875 249.389375 -143.39375 250.02875 -142.4375 250.6875 C-139.53423469 253.42486444 -136.94924945 256.10116523 -135.25 259.75 C-135.45 265.95 -135.45 265.95 -137.25 267.75 C-142.16785325 268.18177581 -145.80686619 266.95038944 -150.25 265.0625 C-164.63408587 259.29749756 -180.66341802 255.81110056 -196.15234375 255.43359375 C-196.8749086 255.41281265 -197.59747345 255.39203156 -198.3419342 255.37062073 C-200.6237037 255.30584574 -202.90557667 255.2465797 -205.1875 255.1875 C-206.74545291 255.14424603 -208.3033958 255.10062969 -209.86132812 255.05664062 C-213.65744922 254.95023961 -217.45367314 254.84877501 -221.25 254.75 C-221.37624756 255.58329834 -221.50249512 256.41659668 -221.63256836 257.27514648 C-223.20667004 267.59737928 -223.20667004 267.59737928 -224.06640625 272.53515625 C-224.25299805 273.60926758 -224.25299805 273.60926758 -224.44335938 274.70507812 C-224.69023387 276.11448333 -224.94025481 277.52334089 -225.19335938 278.93164062 C-227.44797895 292.02259933 -227.52492773 305.25524289 -227.8125 318.5 C-227.85579163 320.37240345 -227.8994089 322.2447994 -227.94335938 324.1171875 C-228.0493255 328.66138063 -228.15089116 333.20565235 -228.25 337.75 C-232.99899911 340.24021469 -236.93701619 340.62251347 -242.25 339.75 C-249.91578551 336.46120874 -253.98126213 330.92323633 -257.24145508 323.48925781 C-260.85568488 313.67283119 -260.5712982 302.75091132 -260.5 292.4375 C-260.49734131 291.42391922 -260.49734131 291.42391922 -260.49462891 290.38986206 C-260.46384527 280.39006434 -260.03881266 270.60444115 -258.25 260.75 C-288.19636107 266.73034632 -326.23386785 282.21470704 -345.0625 307.5625 C-352.30685449 318.70369921 -355.11058652 328.71262537 -352.65625 341.953125 C-349.68486129 352.68313979 -342.24937214 360.13861213 -333.109375 366.15625 C-313.18791183 377.26001636 -291.26659481 379.10196111 -268.93725586 379.01074219 C-265.82190435 379.00003233 -262.70713083 379.01068481 -259.59179688 379.0234375 C-248.61645904 379.0315781 -238.08880341 378.59745788 -227.25 376.75 C-225.75907837 376.52304443 -225.75907837 376.52304443 -224.23803711 376.29150391 C-211.30798157 374.31418742 -198.71758585 371.71380231 -186.25 367.75 C-185.40066895 367.4823584 -184.55133789 367.2147168 -183.67626953 366.93896484 C-137.15215163 352.05830513 -85.11014189 325.62182532 -60.82104492 280.79150391 C-59.1457817 277.50424085 -57.65199307 274.1620397 -56.25 270.75 C-55.9804248 270.09483398 -55.71084961 269.43966797 -55.43310547 268.76464844 C-49.44747008 253.49921936 -48.16306508 234.95766971 -54.703125 219.69140625 C-63.97486416 202.06105376 -78.38610732 192.18321431 -96.9140625 185.9765625 C-105.88915516 183.27564676 -114.65724407 182.41516226 -124 182.5 C-125.57370361 182.50580078 -125.57370361 182.50580078 -127.17919922 182.51171875 C-134.21056482 182.58964061 -140.90029229 183.21061905 -147.84765625 184.2890625 C-154.96503903 185.25330035 -162.21336597 186.11124974 -168.875 183.125 C-173.53491201 178.46508799 -175.50257203 175.41406003 -175.75 168.75 C-175.56056958 163.65432172 -174.92025187 160.51683745 -171.25 156.75 C-165.89681496 153.36415268 -160.6491592 152.99782807 -154.5 152.375 C-144.01740748 151.14701079 -134.26311032 149.05361499 -124.25 145.75 C-123.50363281 145.50797852 -122.75726562 145.26595703 -121.98828125 145.01660156 C-95.98387077 136.44044412 -71.89101119 122.75438567 -51.25 104.75 C-50.62609375 104.25757813 -50.0021875 103.76515625 -49.359375 103.2578125 C-34.97369892 91.78815184 -23.01921164 72.82684656 -18.5625 55 C-17.38276614 42.73076785 -18.35341712 31.67772493 -26.25 21.75 C-38.88961441 7.60924374 -62.24027575 2.99551101 -80.52478027 1.57302856 C-85.93282508 1.30531442 -91.33703222 1.32025495 -96.75 1.375 C-97.98990189 1.38197906 -97.98990189 1.38197906 -99.25485229 1.38909912 C-113.42628475 1.48207121 -127.2644626 2.34386202 -141.25 4.75 C-142.33345703 4.92740723 -143.41691406 5.10481445 -144.53320312 5.28759766 C-194.12440238 13.63540233 -242.15198037 34.67088116 -280.25 67.75 C-281.23484375 68.60078125 -282.2196875 69.4515625 -283.234375 70.328125 C-299.68021414 84.80412098 -316.46064278 105.32605653 -318.546875 127.97265625 C-318.67626107 130.02043965 -318.77821115 132.07027385 -318.84375 134.12109375 C-319.31542391 137.17336819 -320.0892994 138.56399846 -322.25 140.75 C-327.64897791 141.70276081 -331.03233898 140.29013438 -335.390625 137.30859375 C-340.2386721 133.24478957 -343.76580052 127.63246959 -344.55639648 121.29321289 C-344.87170737 108.76525679 -344.89463187 98.17593763 -339.25 86.75 C-338.95528809 86.13189453 -338.66057617 85.51378906 -338.35693359 84.87695312 C-334.25653045 76.33924424 -329.54728556 68.87178784 -323.25 61.75 C-322.53972656 60.91984375 -321.82945312 60.0896875 -321.09765625 59.234375 C-291.34639852 25.14330288 -247.23489219 5.05089232 -205.25 -9.25 C-204.17371338 -9.62632568 -204.17371338 -9.62632568 -203.07568359 -10.01025391 C-143.98488749 -30.62472923 -52.21691849 -42.64890614 0 0 Z " fill="#222F50" transform="translate(677.25,856.25)"/>
<path d="M0 0 C-0.44777549 4.12480241 -0.90362119 8.24847615 -1.37109375 12.37109375 C-1.82504698 16.3818533 -2.24764591 20.39493548 -2.66015625 24.41015625 C-2.89792757 26.60682609 -3.13620453 28.80344126 -3.375 31 C-3.52739136 32.55545532 -3.52739136 32.55545532 -3.68286133 34.14233398 C-6.05814362 55.3802523 -21.54933067 76.87608049 -35 93 C-35.85170151 94.04806413 -36.7032516 95.09625133 -37.5546875 96.14453125 C-45.67339211 106.04396595 -53.51038562 114.83679521 -66 119 C-69.91945526 119.36291252 -72.26354672 119.40170179 -75.75 117.5 C-82.23264571 110.29706033 -81.62919265 101.34906344 -81.15527344 92.20947266 C-79.30158021 65.83223407 -65.25393687 41.19118858 -49 21 C-48.3503125 20.17628906 -47.700625 19.35257813 -47.03125 18.50390625 C-36.03745295 5.20244897 -17.59937194 -7.97622912 0 0 Z " fill="#FCFDFD" transform="translate(1317,1047)"/>
<path d="M0 0 C7.26711386 5.00623399 10.75158429 11.20392258 12.49902344 19.88525391 C16.2701146 44.57356566 10.16706537 77.91019916 -3.1875 98.9375 C-12.58726323 98.58936062 -20.23936677 93.86520932 -26.59375 87.03125 C-37.43829299 72.78449745 -38.58301464 55.16042394 -37.1875 37.9375 C-35.45541567 25.18613446 -30.89244302 12.72651467 -21.1875 3.9375 C-14.37891603 -1.18764288 -8.15318937 -2.71772979 0 0 Z " fill="#FCFCFD" transform="translate(1496.1875,1038.0625)"/>
<path d="M0 0 C6.66170443 13.32340887 -3.7995821 36.43169769 -8.01171875 49.25 C-20.61787744 86.11611623 -38.39462841 121.40875096 -58 155 C-59.0830674 156.87440167 -60.16509389 158.74940518 -61.24609375 160.625 C-63.82097109 165.08905801 -66.40689348 169.54650844 -69 174 C-70.24877303 170.25368091 -69.48113693 167.61403872 -68.62890625 163.88671875 C-68.471978 163.17393265 -68.31504974 162.46114655 -68.15336609 161.72676086 C-67.63256568 159.37810125 -67.09868272 157.03269291 -66.5625 154.6875 C-66.37949341 153.87901611 -66.19648682 153.07053223 -66.00793457 152.23754883 C-57.44496716 114.46073673 -46.55226146 77.53098168 -31 42 C-30.60184082 41.08927734 -30.20368164 40.17855469 -29.79345703 39.24023438 C-12.42375418 0 -12.42375418 0 0 0 Z " fill="#F8F9FA" transform="translate(1420,882)"/>
<path d="M0 0 C2.88615785 2.49567767 4.16694736 5.18319454 5.75 8.625 C13.9278703 25.30222936 27.2277925 35.15736489 44.48828125 41.2265625 C45.73158203 41.60941406 45.73158203 41.60941406 47 42 C46.19534694 47.7219773 41.33694622 50.67909936 37 54 C30.41591729 58.04023257 23.76344172 60.12365604 16 59 C8.45452338 55.87401683 3.84623113 50.37566488 0.75 43 C-2.07209184 35.7828471 -2.15585171 28.83358305 -2.125 21.1875 C-2.12886719 20.24068359 -2.13273437 19.29386719 -2.13671875 18.31835938 C-2.11441463 2.11441463 -2.11441463 2.11441463 0 0 Z " fill="#F9FAFA" transform="translate(1434,1114)"/>
<path d="M0 0 C0.91889511 -0.00095673 1.83779022 -0.00191345 2.78453064 -0.00289917 C4.72866891 -0.00357865 6.67280947 -0.00174056 8.61694336 0.00244141 C11.55522941 0.00774996 14.49335958 0.00251083 17.43164062 -0.00390625 C40.05996892 -0.01497368 40.05996892 -0.01497368 45.52734375 1.1328125 C46.02234375 2.1228125 46.02234375 2.1228125 46.52734375 3.1328125 C25.73734375 3.1328125 4.94734375 3.1328125 -16.47265625 3.1328125 C-12.25265635 -1.0871874 -5.61286947 -0.01295344 0 0 Z " fill="#1E2942" transform="translate(561.47265625,854.8671875)"/>
<path d="M0 0 C0.2475 0.61875 0.495 1.2375 0.75 1.875 C1.81738099 4.15543159 1.81738099 4.15543159 4.0625 4.9375 C4.701875 5.288125 5.34125 5.63875 6 6 C6.75 8.625 6.75 8.625 7 11 C7.928125 11.28875 8.85625 11.5775 9.8125 11.875 C13 13 13 13 16 15 C24.03858123 17.45980586 32.66774064 17.57783219 41 18 C41 18.66 41 19.32 41 20 C20.77055009 20.58920728 20.77055009 20.58920728 14 17 C13.23429688 16.5978125 12.46859375 16.195625 11.6796875 15.78125 C5.74629834 12.25646436 2.37637274 7.95830483 -1 2 C-0.67 1.34 -0.34 0.68 0 0 Z " fill="#2B354B" transform="translate(757,1176)"/>
<path d="M0 0 C-1 2 -1 2 -3.9140625 3 C-5.13867188 3.33 -6.36328125 3.66 -7.625 4 C-8.83414062 4.33 -10.04328125 4.66 -11.2890625 5 C-12.51367188 5.33 -13.73828125 5.66 -15 6 C-16.79050781 6.52013672 -16.79050781 6.52013672 -18.6171875 7.05078125 C-25.87527766 9.0874047 -32.55098597 10.65533645 -40 9 C-40 8.34 -40 7.68 -40 7 C-39.3608667 6.89453857 -38.7217334 6.78907715 -38.06323242 6.68041992 C-35.10365059 6.18862393 -32.1456045 5.6881023 -29.1875 5.1875 C-28.18267578 5.02185547 -27.17785156 4.85621094 -26.14257812 4.68554688 C-20.08633429 3.65345387 -14.23108935 2.33892803 -8.33789062 0.59765625 C-5.50844029 -0.12566188 -2.90638959 -0.23565321 0 0 Z " fill="#2D3952" transform="translate(490,1226)"/>
<path d="M0 0 C1.70446289 0.40412109 1.70446289 0.40412109 3.44335938 0.81640625 C4.63123047 1.10644531 5.81910156 1.39648438 7.04296875 1.6953125 C9.38243482 2.25678436 11.7222676 2.81673088 14.0625 3.375 C15.10124268 3.62749512 16.13998535 3.87999023 17.21020508 4.14013672 C20.20535805 4.81465747 23.19789174 5.34513609 26.23046875 5.8203125 C25.90046875 6.4803125 25.57046875 7.1403125 25.23046875 7.8203125 C18.06623936 7.29160498 11.26595528 6.08754121 4.29296875 4.3828125 C3.36162109 4.16560547 2.43027344 3.94839844 1.47070312 3.72460938 C-5.38592912 2.07604725 -5.38592912 2.07604725 -8.76953125 -0.1796875 C-5.17362271 -1.37832368 -3.65163623 -0.88257584 0 0 Z " fill="#303950" transform="translate(358.76953125,1255.1796875)"/>
<path d="M0 0 C0.33 0 0.66 0 1 0 C1.19336043 17.68173704 0.5980786 35.33123111 0 53 C-0.33 53 -0.66 53 -1 53 C-1.19456392 47.54182838 -1.37288077 42.08343631 -1.53710938 36.62426758 C-1.59497996 34.77289106 -1.65704589 32.92164016 -1.72363281 31.07055664 C-2.10234435 20.45802663 -2.22850542 10.44355384 0 0 Z " fill="#1D283F" transform="translate(1341,1097)"/>
<path d="M0 0 C0.66 0 1.32 0 2 0 C1.67 6.93 1.34 13.86 1 21 C0.34 21 -0.32 21 -1 21 C-3.52996301 15.94007398 -2.54197104 8.07581487 -1 2.75 C-0.67 1.8425 -0.34 0.935 0 0 Z " fill="#1B2840" transform="translate(784,1143)"/>
<path d="M0 0 C0.66 0 1.32 0 2 0 C0.82144268 6.70774643 -0.47648314 13.36181939 -2 20 C-2.99 20 -3.98 20 -5 20 C-4.68676801 12.63904818 -3.06085395 6.69116911 0 0 Z " fill="#303952" transform="translate(338,943)"/>
<path d="M0 0 C6.75 0.875 6.75 0.875 9 2 C11.71262116 2.2322646 14.40773126 2.41936235 17.125 2.5625 C18.25615234 2.62727539 18.25615234 2.62727539 19.41015625 2.69335938 C21.27321888 2.7994832 23.13658524 2.90025001 25 3 C24.67 3.66 24.34 4.32 24 5 C21.3118751 5.08164159 18.626277 5.14079668 15.9375 5.1875 C14.80924805 5.22520508 14.80924805 5.22520508 13.65820312 5.26367188 C8.33368144 5.33282151 4.75653566 4.40669334 0 2 C0 1.34 0 0.68 0 0 Z " fill="#2C374A" transform="translate(1334,1190)"/>
<path d="M0 0 C0.66 0 1.32 0 2 0 C5.6719567 8.89575224 5.29540228 17.56900882 5 27 C4.34 27 3.68 27 3 27 C2.92652344 25.58460937 2.92652344 25.58460937 2.8515625 24.140625 C2.3759456 15.97313482 1.54398786 8.04972313 0 0 Z " fill="#1B2342" transform="translate(625,1080)"/>
<path d="M0 0 C2.89906458 2.89906458 2.54925097 6.03525732 2.75 9.9375 C2.79310303 10.69861084 2.83620605 11.45972168 2.88061523 12.24389648 C3.14541375 18.37181319 2.55504934 24.04968723 1 30 C0.67 30 0.34 30 0 30 C0 20.1 0 10.2 0 0 Z " fill="#1D2741" transform="translate(1509,1057)"/>
<path d="M0 0 C1.84444267 3.68888535 2.27124446 5.08068195 2.4140625 8.984375 C2.45273438 9.91894531 2.49140625 10.85351562 2.53125 11.81640625 C2.57765625 13.26853516 2.57765625 13.26853516 2.625 14.75 C2.66367188 15.73355469 2.70234375 16.71710938 2.7421875 17.73046875 C2.83628426 20.15346037 2.92192328 22.57644796 3 25 C2.01 24.67 1.02 24.34 0 24 C0 16.08 0 8.16 0 0 Z " fill="#182240" transform="translate(1121,1150)"/>
<path d="M0 0 C0.66 0.66 1.32 1.32 2 2 C-0.93839525 6.04029348 -4.32143971 9.12820781 -8.09375 12.3515625 C-10.16400548 14.14182441 -12.10475378 16.02578518 -14 18 C-14.66 17.67 -15.32 17.34 -16 17 C-10.82296052 11.16555868 -5.59719124 5.43521465 0 0 Z " fill="#2C3750" transform="translate(1434,1049)"/>
<path d="M0 0 C0.99 0 1.98 0 3 0 C2.54994536 2.43929614 2.09035124 4.87611777 1.625 7.3125 C1.49867187 8.00279297 1.37234375 8.69308594 1.2421875 9.40429688 C0.57885682 12.83703314 -0.03497639 15.05246458 -2 18 C-3.1171875 16.453125 -3.1171875 16.453125 -4 14 C-3.3203125 10.546875 -3.3203125 10.546875 -2.125 6.75 C-1.82529297 5.77546875 -1.82529297 5.77546875 -1.51953125 4.78125 C-1.02608016 3.18340837 -0.51476828 1.59110197 0 0 Z " fill="#303853" transform="translate(1131,1102)"/>
<path d="M0 0 C0.33 0 0.66 0 1 0 C1.0580476 3.27075883 1.09361165 6.54138524 1.125 9.8125 C1.14175781 10.74126953 1.15851562 11.67003906 1.17578125 12.62695312 C1.18222656 13.51962891 1.18867187 14.41230469 1.1953125 15.33203125 C1.20578613 16.15421143 1.21625977 16.9763916 1.22705078 17.82348633 C1 20 1 20 -1 23 C-2 22 -2 22 -2.1328125 19.78515625 C-2.13023437 18.88667969 -2.12765625 17.98820313 -2.125 17.0625 C-2.12757813 16.16660156 -2.13015625 15.27070312 -2.1328125 14.34765625 C-2 12 -2 12 -1 10 C-1 8.865625 -1 7.73125 -1 6.5625 C-1 3 -1 3 0 0 Z " fill="#1D273F" transform="translate(695,894)"/>
<path d="M0 0 C5.75762166 1.08896667 11.39247819 2.29336293 17 4 C17 4.99 17 5.98 17 7 C10.73 5.68 4.46 4.36 -2 3 C-1.34 2.67 -0.68 2.34 0 2 C0 1.34 0 0.68 0 0 Z " fill="#3D455A" transform="translate(758,1049)"/>
<path d="M0 0 C0.33 0 0.66 0 1 0 C0.67 11.55 0.34 23.1 0 35 C-0.33 35 -0.66 35 -1 35 C-1.19215767 30.33732843 -1.37089491 25.6744108 -1.53710938 21.01074219 C-1.5955764 19.42368721 -1.65773514 17.83676381 -1.72363281 16.25 C-1.8176169 13.97159787 -1.89839523 11.6930552 -1.9765625 9.4140625 C-2.00875885 8.70255035 -2.0409552 7.99103821 -2.0741272 7.25796509 C-2.1276313 5.50595267 -2.07274185 3.75131916 -2 2 C-1.34 1.34 -0.68 0.68 0 0 Z " fill="#636C7D" transform="translate(449,1149)"/>
<path d="M0 0 C0.33 0 0.66 0 1 0 C1.02710123 2.5625718 1.04688771 5.12485365 1.0625 7.6875 C1.07087891 8.40873047 1.07925781 9.12996094 1.08789062 9.87304688 C1.10543632 13.71555382 0.93524221 17.26639526 0 21 C-0.66 20.67 -1.32 20.34 -2 20 C-2.10635926 13.57117333 -2.05873075 7.35238448 -1 1 C-0.67 0.67 -0.34 0.34 0 0 Z " fill="#1B2940" transform="translate(1533,1071)"/>
<path d="M0 0 C0.33 0 0.66 0 1 0 C1 7.59 1 15.18 1 23 C0.67 23 0.34 23 0 23 C-0.33 20.69 -0.66 18.38 -1 16 C-1.33 16 -1.66 16 -2 16 C-2.05402274 13.89611431 -2.09280256 11.79183286 -2.125 9.6875 C-2.14820313 8.51574219 -2.17140625 7.34398437 -2.1953125 6.13671875 C-2 3 -2 3 0 0 Z " fill="#1C2841" transform="translate(972,1130)"/>
<path d="M0 0 C0.66 0.99 1.32 1.98 2 3 C-1.50118038 7.48151089 -5.23645964 11.73958774 -9 16 C-9.66 15.01 -10.32 14.02 -11 13 C-10.28972656 12.22914063 -9.57945312 11.45828125 -8.84765625 10.6640625 C-7.9191529 9.65114976 -6.99077394 8.63812299 -6.0625 7.625 C-5.59392578 7.11710938 -5.12535156 6.60921875 -4.64257812 6.0859375 C-2.02273232 3.25734146 -2.02273232 3.25734146 0 0 Z " fill="#2B3751" transform="translate(645,940)"/>
<path d="M0 0 C0.66 0 1.32 0 2 0 C0.58319756 4.32046898 -1.53763785 7.00461199 -4.625 10.3125 C-5.44226563 11.19550781 -6.25953125 12.07851562 -7.1015625 12.98828125 C-8.04128906 13.98408203 -8.04128906 13.98408203 -9 15 C-9.66 14.01 -10.32 13.02 -11 12 C-9.6696875 10.9790625 -9.6696875 10.9790625 -8.3125 9.9375 C-5.8401779 7.90353289 -4.05055402 5.83189575 -2.25 3.1875 C-1.5075 2.135625 -0.765 1.08375 0 0 Z " fill="#2B3450" transform="translate(1015,1168)"/>
<path d="M0 0 C0.66 0 1.32 0 2 0 C1.67 7.26 1.34 14.52 1 22 C-1 20 -1 20 -1.23046875 16.19140625 C-1.22647471 14.64837619 -1.21170649 13.10534534 -1.1875 11.5625 C-1.18685547 10.78583984 -1.18621094 10.00917969 -1.18554688 9.20898438 C-1.15987563 5.89739425 -1.05352418 3.16057255 0 0 Z " fill="#2C354B" transform="translate(1655,1149)"/>
<path d="M0 0 C0.33 0 0.66 0 1 0 C0.67 7.59 0.34 15.18 0 23 C-0.33 23 -0.66 23 -1 23 C-1.84942326 18.56261287 -2.16329619 14.32893048 -2.1875 9.8125 C-2.20167969 8.60207031 -2.21585938 7.39164063 -2.23046875 6.14453125 C-2 3 -2 3 0 0 Z " fill="#18273D" transform="translate(1458,1074)"/>
<path d="M0 0 C0.66 0 1.32 0 2 0 C2.38614349 6.8218683 1.00865708 12.49577707 -1 19 C-1.66 18.34 -2.32 17.68 -3 17 C-2.79840966 14.5809159 -2.46922026 12.37192994 -2 10 C-1.82855469 9.11441406 -1.65710937 8.22882812 -1.48046875 7.31640625 C-0.99910051 4.87493426 -0.50498619 2.43668096 0 0 Z " fill="#2C354C" transform="translate(1419,901)"/>
<path d="M0 0 C6.86061613 -0.36108506 13.93775593 0.67554357 20 4 C19.67 4.33 19.34 4.66 19 5 C12.14066715 4.95177973 6.26611037 3.71925544 0 1 C0 0.67 0 0.34 0 0 Z " fill="#2C374C" transform="translate(1425,1191)"/>
<path d="M0 0 C4.55018638 -0.21667554 7.71903819 0.54608844 12 2 C15.65316948 2.74781339 19.32237131 3.38488061 23 4 C23 4.33 23 4.66 23 5 C14.37603795 5.48661855 7.76199333 4.92480024 0 1 C0 0.67 0 0.34 0 0 Z " fill="#454C62" transform="translate(1221,1187)"/>
<path d="M0 0 C0.99 0 1.98 0 3 0 C3.26404456 6.86515862 2.25841946 13.25846717 1 20 C0.67 20 0.34 20 0 20 C0 13.4 0 6.8 0 0 Z " fill="#212D43" transform="translate(449,1127)"/>
<path d="M0 0 C-6.38787809 4.2585854 -14.59056503 3.10949904 -22 3 C-18.60529272 1.03289578 -15.42363712 0.40617773 -11.5625 -0.1875 C-10.45003906 -0.36667969 -9.33757812 -0.54585937 -8.19140625 -0.73046875 C-5.16534289 -0.98603591 -2.91752657 -0.76891822 0 0 Z " fill="#1E2844" transform="translate(470,1261)"/>
<path d="M0 0 C1 3 1 3 -0.1875 5.875 C-1.90937131 8.84374364 -3.77625515 11.39285086 -6 14 C-7.32 13.67 -8.64 13.34 -10 13 C-9.36191406 12.22914062 -8.72382812 11.45828125 -8.06640625 10.6640625 C-6.82697266 9.15972656 -6.82697266 9.15972656 -5.5625 7.625 C-4.73878906 6.62726563 -3.91507813 5.62953125 -3.06640625 4.6015625 C-1.01584166 2.20344705 -1.01584166 2.20344705 0 0 Z " fill="#2D3751" transform="translate(612,1144)"/>
<path d="M0 0 C5.93143988 4.50789431 9.70617042 9.29168774 13 16 C13 16.66 13 17.32 13 18 C12.01 17.67 11.02 17.34 10 17 C10 16.01 10 15.02 10 14 C9.01 13.67 8.02 13.34 7 13 C6.24990701 11.27152485 5.50548438 9.53950201 4.828125 7.78125 C3.69625414 5.34665985 1.94606847 3.81185685 0 2 C0 1.34 0 0.68 0 0 Z " fill="#2E374D" transform="translate(1516,1025)"/>
<path d="M0 0 C2.39184406 3.58776609 3.12754433 6.01624945 3.09765625 10.23046875 C3.09443359 11.03291016 3.09121094 11.83535156 3.08789062 12.66210938 C3.07532227 13.91217773 3.07532227 13.91217773 3.0625 15.1875 C3.05798828 16.03248047 3.05347656 16.87746094 3.04882812 17.74804688 C3.03705403 19.83206155 3.0191189 21.91603977 3 24 C2.67 24 2.34 24 2 24 C1.92652344 22.53626953 1.92652344 22.53626953 1.8515625 21.04296875 C1.77679687 19.77066406 1.70203125 18.49835938 1.625 17.1875 C1.55539062 15.92292969 1.48578125 14.65835937 1.4140625 13.35546875 C1.23897061 9.87244766 1.23897061 9.87244766 -1 7 C-1.75 5 -1.75 5 -2 3 C-1.34 2.01 -0.68 1.02 0 0 Z " fill="#525B6C" transform="translate(1172,1037)"/>
<path d="M0 0 C2.97 0.495 2.97 0.495 6 1 C6 1.66 6 2.32 6 3 C6.556875 3.12375 7.11375 3.2475 7.6875 3.375 C10.22114364 4.05976855 12.57921032 4.99133763 15 6 C15 6.66 15 7.32 15 8 C11.14974121 7.39644592 8.13898841 6.23227397 4.6875 4.4375 C3.80449219 3.98246094 2.92148437 3.52742188 2.01171875 3.05859375 C1.34785156 2.70925781 0.68398438 2.35992188 0 2 C0 1.34 0 0.68 0 0 Z " fill="#303A51" transform="translate(330,1245)"/>
<path d="M0 0 C0 3.10551666 -0.5393715 4.35261084 -2 7 C-2.66 7 -3.32 7 -4 7 C-4.2475 7.721875 -4.495 8.44375 -4.75 9.1875 C-6.10983674 12.24713266 -7.82917754 14.4673738 -10 17 C-10 10.57003952 -5.89424053 6.04378583 -1.625 1.4375 C-1.08875 0.963125 -0.5525 0.48875 0 0 Z " fill="#2C374F" transform="translate(1453,1028)"/>
<path d="M0 0 C-1.32291145 3.96873434 -2.91149738 4.29905037 -6.5625 6.1875 C-7.57441406 6.71730469 -8.58632813 7.24710938 -9.62890625 7.79296875 C-10.41136719 8.19128906 -11.19382812 8.58960938 -12 9 C-12 8.01 -12 7.02 -12 6 C-10.13671875 4.39453125 -10.13671875 4.39453125 -7.6875 2.8125 C-6.88699219 2.28269531 -6.08648437 1.75289062 -5.26171875 1.20703125 C-3 0 -3 0 0 0 Z " fill="#2B354B" transform="translate(364,1136)"/>
<path d="M0 0 C0.66 0 1.32 0 2 0 C0.83348574 5.92863717 -0.75519358 11.38798394 -3 17 C-3.66 17 -4.32 17 -5 17 C-3.57843756 11.2189794 -1.88319222 5.64957665 0 0 Z " fill="#1F2C43" transform="translate(792,1116)"/>
<path d="M0 0 C0.33 0 0.66 0 1 0 C1.02717692 2.06242617 1.0464758 4.12495703 1.0625 6.1875 C1.07410156 7.33605469 1.08570313 8.48460937 1.09765625 9.66796875 C1.01192832 12.59300586 0.67849023 15.16316291 0 18 C-2 16 -2 16 -2.265625 13.828125 C-2.23528962 8.82278672 -1.97526844 4.69126254 0 0 Z " fill="#2F3A50" transform="translate(815,1049)"/>
<path d="M0 0 C0.66 0 1.32 0 2 0 C2.20496094 0.69867187 2.40992188 1.39734375 2.62109375 2.1171875 C2.89050781 3.02726562 3.15992188 3.93734375 3.4375 4.875 C3.70433594 5.77992187 3.97117187 6.68484375 4.24609375 7.6171875 C4.92613826 9.98275381 4.92613826 9.98275381 6 12 C5.34 12.66 4.68 13.32 4 14 C1.3184721 10.92307254 0.57912193 8.80265337 0.3125 4.75 C0.24675781 3.85796875 0.18101563 2.9659375 0.11328125 2.046875 C0.07589844 1.37140625 0.03851562 0.6959375 0 0 Z " fill="#2B3650" transform="translate(1342,1157)"/>
<path d="M0 0 C0.99 0 1.98 0 3 0 C3.66 3.96 4.32 7.92 5 12 C4.01 12 3.02 12 2 12 C0.40861915 7.82262526 -0.21278058 4.46839215 0 0 Z " fill="#242C44" transform="translate(753,1164)"/>
<path d="M0 0 C0.99 0.33 1.98 0.66 3 1 C0.97435578 5.20710722 -1.4112324 9.1168486 -4 13 C-4.66 13 -5.32 13 -6 13 C-4.31326082 8.50202887 -2.18326108 4.27113698 0 0 Z " fill="#2F3952" transform="translate(709,1091)"/>
<path d="M0 0 C2.0625 0.4375 2.0625 0.4375 4 1 C1.20375042 3.18697502 -1.63307872 4.99152813 -4.75 6.6875 C-5.94882813 7.34298828 -5.94882813 7.34298828 -7.171875 8.01171875 C-7.77515625 8.33785156 -8.3784375 8.66398437 -9 9 C-9.33 8.34 -9.66 7.68 -10 7 C-9.34 7 -8.68 7 -8 7 C-7.773125 6.38125 -7.54625 5.7625 -7.3125 5.125 C-5.6144983 2.37585439 -4.00347742 2.00115914 -1 1 C-0.67 0.67 -0.34 0.34 0 0 Z " fill="#2E3950" transform="translate(1292,1045)"/>
<path d="M0 0 C4.95 0.99 4.95 0.99 10 2 C10 2.33 10 2.66 10 3 C13.3 3.33 16.6 3.66 20 4 C20 4.33 20 4.66 20 5 C12.56621057 5.33452052 6.80122845 5.13902852 0 2 C0 1.34 0 0.68 0 0 Z " fill="#444B61" transform="translate(964,1188)"/>
<path d="M0 0 C0.33 0 0.66 0 1 0 C1.33 7.26 1.66 14.52 2 22 C1.01 22 0.02 22 -1 22 C-0.67 14.74 -0.34 7.48 0 0 Z " fill="#354053" transform="translate(1458,1081)"/>
<path d="M0 0 C0.33 0.99 0.66 1.98 1 3 C-0.65234375 5.91796875 -0.65234375 5.91796875 -2.9375 9.1875 C-3.32357422 9.74630859 -3.70964844 10.30511719 -4.10742188 10.88085938 C-5.06242753 12.26031198 -6.03004093 13.63102056 -7 15 C-7.66 14.67 -8.32 14.34 -9 14 C-8.34 12.02 -7.68 10.04 -7 8 C-6.01 8 -5.02 8 -4 8 C-4 7.01 -4 6.02 -4 5 C-3.34 5 -2.68 5 -2 5 C-1.855625 4.360625 -1.71125 3.72125 -1.5625 3.0625 C-1 1 -1 1 0 0 Z " fill="#2E374D" transform="translate(1353,1080)"/>
<path d="M0 0 C0.33 0 0.66 0 1 0 C1.08970351 5.11310018 1.0283474 9.96109772 0 15 C-0.99 15.495 -0.99 15.495 -2 16 C-2.05423638 14.08364783 -2.09289963 12.16685075 -2.125 10.25 C-2.14820313 9.18265625 -2.17140625 8.1153125 -2.1953125 7.015625 C-2.00487687 4.07529894 -1.52670104 2.47638122 0 0 Z " fill="#1C2545" transform="translate(1314,1079)"/>
<path d="M0 0 C0.33 0 0.66 0 1 0 C2.32594359 5.96674616 2.0884587 11.92583615 2 18 C1.34 18.33 0.68 18.66 0 19 C-0.19600577 16.77156512 -0.38146569 14.54220107 -0.5625 12.3125 C-0.66691406 11.07113281 -0.77132813 9.82976562 -0.87890625 8.55078125 C-0.98493841 5.44164467 -0.77228525 2.99189028 0 0 Z " fill="#343E52" transform="translate(1532,1053)"/>
<path d="M0 0 C1.58294782 -0.05437607 3.16644256 -0.09296271 4.75 -0.125 C5.63171875 -0.14820313 6.5134375 -0.17140625 7.421875 -0.1953125 C10.1135858 0.00860498 11.69904974 0.63448279 14 2 C14 2.66 14 3.32 14 4 C12.4156683 3.91231752 10.83246433 3.80412671 9.25 3.6875 C7.92742188 3.60048828 7.92742188 3.60048828 6.578125 3.51171875 C3.67696226 2.9358819 2.20774393 1.92403852 0 0 Z " fill="#1F2842" transform="translate(737,984)"/>
<path d="M0 0 C0.66 0.33 1.32 0.66 2 1 C0.35433477 6.68502535 -2.29032784 11.76681636 -5 17 C-6.30230734 13.99353048 -5.96485975 12.90644333 -4.78515625 9.765625 C-4.21667969 8.60546875 -3.64820313 7.4453125 -3.0625 6.25 C-2.21365234 4.49429687 -2.21365234 4.49429687 -1.34765625 2.703125 C-0.90292969 1.81109375 -0.45820312 0.9190625 0 0 Z " fill="#2E374E" transform="translate(1753,1118)"/>
<path d="M0 0 C0.66 0 1.32 0 2 0 C1.88490339 1.41750563 1.75746342 2.83401169 1.625 4.25 C1.55539062 5.03890625 1.48578125 5.8278125 1.4140625 6.640625 C0.98492887 9.085877 0.21399362 10.84836903 -1 13 C-1.66 12.67 -2.32 12.34 -3 12 C-2.68950274 10.56206608 -2.3765224 9.1246682 -2.0625 7.6875 C-1.88847656 6.88699219 -1.71445312 6.08648438 -1.53515625 5.26171875 C-1 3 -1 3 0 0 Z " fill="#353E57" transform="translate(775,1071)"/>
<path d="M0 0 C-1.0975223 2.99324263 -1.67682892 3.84610901 -4.625 5.25 C-5.40875 5.4975 -6.1925 5.745 -7 6 C-7 6.66 -7 7.32 -7 8 C-8.65 8 -10.3 8 -12 8 C-4.43243243 0 -4.43243243 0 0 0 Z " fill="#2E3952" transform="translate(902,1032)"/>
<path d="M0 0 C1 3 1 3 -0.21484375 5.48046875 C-0.78332031 6.37378906 -1.35179687 7.26710938 -1.9375 8.1875 C-2.50339844 9.08855469 -3.06929688 9.98960937 -3.65234375 10.91796875 C-4.09707031 11.60503906 -4.54179687 12.29210937 -5 13 C-5.99 12.34 -6.98 11.68 -8 11 C-7.05016642 9.49460339 -6.08988109 7.99579653 -5.125 6.5 C-4.32449219 5.24703125 -4.32449219 5.24703125 -3.5078125 3.96875 C-2.76144531 2.99421875 -2.76144531 2.99421875 -2 2 C-1.34 2 -0.68 2 0 2 C0 1.34 0 0.68 0 0 Z " fill="#2F3951" transform="translate(371,949)"/>
<path d="M0 0 C0 0.99 0 1.98 0 3 C-1.75 4.60546875 -1.75 4.60546875 -4 6.1875 C-4.7425 6.71730469 -5.485 7.24710938 -6.25 7.79296875 C-6.8275 8.19128906 -7.405 8.58960938 -8 9 C-9.32 8.34 -10.64 7.68 -12 7 C-8.04 4.69 -4.08 2.38 0 0 Z " fill="#2E3952" transform="translate(405,877)"/>
<path d="M0 0 C3.96 0 7.92 0 12 0 C12 0.99 12 1.98 12 3 C7.71 2.67 3.42 2.34 -1 2 C-0.67 1.34 -0.34 0.68 0 0 Z " fill="#2C364F" transform="translate(1065,1028)"/>
<path d="M0 0 C4.16871752 2.50123051 6.98422938 4.49415979 9 9 C8.67 9.66 8.34 10.32 8 11 C7.34 11 6.68 11 6 11 C4.4921875 9.1015625 4.4921875 9.1015625 2.875 6.625 C2.33617187 5.81289062 1.79734375 5.00078125 1.2421875 4.1640625 C0 2 0 2 0 0 Z " fill="#2D364D" transform="translate(1163,1026)"/>
<path d="M0 0 C0.99 0.495 0.99 0.495 2 1 C3.0283474 6.03890228 3.08970351 10.88689982 3 16 C0.2656934 13.2656934 0.04659335 11.23006445 -0.09765625 7.421875 C-0.08025391 6.09929687 -0.08025391 6.09929687 -0.0625 4.75 C-0.05347656 3.85796875 -0.04445313 2.9659375 -0.03515625 2.046875 C-0.02355469 1.37140625 -0.01195312 0.6959375 0 0 Z " fill="#1F283F" transform="translate(1313,1147)"/>
<path d="M0 0 C0.33 0 0.66 0 1 0 C1.33 6.6 1.66 13.2 2 20 C-1.45015204 15.39979727 -1.22331682 13.11765168 -0.6875 7.75 C-0.62626953 7.00492188 -0.56503906 6.25984375 -0.50195312 5.4921875 C-0.3492857 3.66017845 -0.17660246 1.82985684 0 0 Z " fill="#1C253F" transform="translate(868,1140)"/>
<path d="M0 0 C0.99 0 1.98 0 3 0 C2.125 5.75 2.125 5.75 1 8 C0.77532169 9.53668865 0.59203195 11.07968054 0.4375 12.625 C0.35371094 13.44226563 0.26992188 14.25953125 0.18359375 15.1015625 C0.12300781 15.72804688 0.06242188 16.35453125 0 17 C-0.33 17 -0.66 17 -1 17 C-1.02709444 14.91673869 -1.04643873 12.83337559 -1.0625 10.75 C-1.07410156 9.58984375 -1.08570313 8.4296875 -1.09765625 7.234375 C-1.01782092 4.59022872 -0.78643778 2.50173909 0 0 Z " fill="#485066" transform="translate(715,1003)"/>
<path d="M0 0 C0.66 0 1.32 0 2 0 C1.71812064 1.79323253 1.4241719 3.58457126 1.125 5.375 C0.96257812 6.37273437 0.80015625 7.37046875 0.6328125 8.3984375 C0 11 0 11 -2 13 C-3.60367894 8.99080266 -2.31933425 5.95800274 -1 2 C-0.67 1.34 -0.34 0.68 0 0 Z " fill="#303B4F" transform="translate(1167,1085)"/>
<path d="M0 0 C3.15473719 0.35052635 4.8233534 0.86519076 7.375 2.8125 C9 5 9 5 8.75 7.25 C8.5025 7.8275 8.255 8.405 8 9 C5.06799526 6.14723863 2.35684596 3.34920216 0 0 Z " fill="#333B55" transform="translate(610,1058)"/>
<path d="M0 0 C-1.22053859 3.66161578 -2.36782304 4.16270474 -5.5625 6.1875 C-6.38878906 6.71730469 -7.21507812 7.24710938 -8.06640625 7.79296875 C-8.70449219 8.19128906 -9.34257813 8.58960938 -10 9 C-10.33 8.01 -10.66 7.02 -11 6 C-10.01 6 -9.02 6 -8 6 C-7.67 5.01 -7.34 4.02 -7 3 C-2.66666667 0 -2.66666667 0 0 0 Z " fill="#2C364E" transform="translate(597,1209)"/>
<path d="M0 0 C0.66 0.99 1.32 1.98 2 3 C0.02 5.31 -1.96 7.62 -4 10 C-4.99 9.34 -5.98 8.68 -7 8 C-5.71937515 6.2925002 -4.38232443 4.62626404 -3 3 C-2.34 3 -1.68 3 -1 3 C-0.67 2.01 -0.34 1.02 0 0 Z " fill="#2B354E" transform="translate(1724,1167)"/>
<path d="M0 0 C0 0.33 0 0.66 0 1 C-8.91 1.99 -8.91 1.99 -18 3 C-12.08111091 -0.94592606 -6.7418108 -1.40454392 0 0 Z " fill="#454E64" transform="translate(417,1094)"/>
<path d="M0 0 C0.33 0 0.66 0 1 0 C0.88541307 1.43836751 0.75790884 2.87570966 0.625 4.3125 C0.55539062 5.11300781 0.48578125 5.91351562 0.4140625 6.73828125 C0 9 0 9 -2 12 C-2.33 11.67 -2.66 11.34 -3 11 C-2.94921875 9.00390625 -2.94921875 9.00390625 -2.6875 6.5625 C-2.60886719 5.75941406 -2.53023437 4.95632813 -2.44921875 4.12890625 C-2 2 -2 2 0 0 Z " fill="#1E2940" transform="translate(979,1089)"/>
<path d="M0 0 C0.66 0.33 1.32 0.66 2 1 C0.92492371 2.29854721 -0.16043736 3.58858361 -1.25 4.875 C-1.85328125 5.59429688 -2.4565625 6.31359375 -3.078125 7.0546875 C-4.97087634 8.97052118 -6.53657727 9.96449045 -9 11 C-7.59155282 7.78475695 -5.89655214 5.67816132 -3.375 3.25 C-2.74335937 2.63640625 -2.11171875 2.0228125 -1.4609375 1.390625 C-0.73777344 0.70226563 -0.73777344 0.70226563 0 0 Z " fill="#1C2944" transform="translate(1246,1046)"/>
<path d="M0 0 C0.66 0 1.32 0 2 0 C0.78065514 4.03321763 -0.55954927 7.54269479 -3 11 C-3.66 11 -4.32 11 -5 11 C-4.54917531 9.53932801 -4.08906463 8.08151968 -3.625 6.625 C-3.36976562 5.81289063 -3.11453125 5.00078125 -2.8515625 4.1640625 C-2 2 -2 2 0 0 Z " fill="#1F2B45" transform="translate(1397,903)"/>
<path d="M0 0 C0.66 0.99 1.32 1.98 2 3 C-0.97 5.31 -3.94 7.62 -7 10 C-7 7 -7 7 -5.46875 5.17578125 C-4.8190625 4.56089844 -4.169375 3.94601562 -3.5 3.3125 C-2.8503125 2.68988281 -2.200625 2.06726563 -1.53125 1.42578125 C-0.77328125 0.72001953 -0.77328125 0.72001953 0 0 Z " fill="#354057" transform="translate(364,907)"/>
<path d="M0 0 C0 0.66 0 1.32 0 2 C-1.86328125 3.54296875 -1.86328125 3.54296875 -4.3125 5.1875 C-5.11300781 5.73792969 -5.91351563 6.28835938 -6.73828125 6.85546875 C-7.48464844 7.23316406 -8.23101562 7.61085938 -9 8 C-9.99 7.67 -10.98 7.34 -12 7 C-10.1382468 3.27649361 -4.20897298 0 0 0 Z " fill="#2E374D" transform="translate(427,900)"/>
<path d="M0 0 C0.66 0.33 1.32 0.66 2 1 C0.34908222 5.29238623 -2.73754566 7.8793915 -6 11 C-6.66 10.67 -7.32 10.34 -8 10 C-7.401875 9.443125 -6.80375 8.88625 -6.1875 8.3125 C-4.01074085 6.01135462 -2.55742513 3.74403476 -1 1 C-0.67 0.67 -0.34 0.34 0 0 Z " fill="#1F2943" transform="translate(1283,1163)"/>
<path d="M0 0 C0.66 0.66 1.32 1.32 2 2 C0.68 4.97 -0.64 7.94 -2 11 C-2.66 10.67 -3.32 10.34 -4 10 C-3.43454163 6.04179141 -2.19097652 3.3340947 0 0 Z " fill="#2C384E" transform="translate(655,1137)"/>
<path d="M0 0 C0.33 0 0.66 0 1 0 C2.01924246 6.21369499 2.62926746 10.48351346 -1 16 C-2.26823485 12.34606463 -1.75715321 9.50929974 -1.0625 5.75 C-0.86785156 4.67234375 -0.67320313 3.5946875 -0.47265625 2.484375 C-0.31667969 1.66453125 -0.16070313 0.8446875 0 0 Z " fill="#364057" transform="translate(1507,1088)"/>
<path d="M0 0 C0.66 0.33 1.32 0.66 2 1 C1.21302675 4.41021743 0.12880057 7.68885166 -1 11 C-1.99 11 -2.98 11 -4 11 C-3.52269162 9.5410574 -3.04308958 8.08286504 -2.5625 6.625 C-2.29566406 5.81289062 -2.02882813 5.00078125 -1.75390625 4.1640625 C-1 2 -1 2 0 0 Z " fill="#2F384F" transform="translate(811,1070)"/>
<path d="M0 0 C0.66 0.33 1.32 0.66 2 1 C-4 7 -4 7 -6.5625 7.0625 C-7.7690625 7.0315625 -7.7690625 7.0315625 -9 7 C-6.25604436 4.05278838 -3.61662784 1.80831392 0 0 Z " fill="#2B3750" transform="translate(1129,1027)"/>
<path d="M0 0 C3.96 0 7.92 0 12 0 C12 0.99 12 1.98 12 3 C8.04 2.67 4.08 2.34 0 2 C0 1.34 0 0.68 0 0 Z " fill="#3A435B" transform="translate(1599,1028)"/>
<path d="M0 0 C0.33 0 0.66 0 1 0 C0.61271765 5.71241466 0.12989477 8.73688282 -4 13 C-5 10 -5 10 -4.00390625 7.51953125 C-3.52824219 6.62621094 -3.05257813 5.73289062 -2.5625 4.8125 C-2.08941406 3.91144531 -1.61632812 3.01039063 -1.12890625 2.08203125 C-0.75636719 1.39496094 -0.38382812 0.70789063 0 0 Z " fill="#323B55" transform="translate(477,944)"/>
<path d="M0 0 C0.99 0.33 1.98 0.66 3 1 C-0.63 4.63 -4.26 8.26 -8 12 C-8 8.03869629 -6.65122875 7.17085599 -4 4.3125 C-3.2575 3.50425781 -2.515 2.69601562 -1.75 1.86328125 C-1.1725 1.24839844 -0.595 0.63351562 0 0 Z " fill="#1F2A42" transform="translate(391,925)"/>
<path d="M0 0 C0.66 0 1.32 0 2 0 C-0.89066059 9.59453303 -0.89066059 9.59453303 -4 13 C-3.50269348 8.02693484 -2.44697666 4.36200187 0 0 Z " fill="#303A4F" transform="translate(1403,992)"/>
<path d="M0 0 C0.66 0 1.32 0 2 0 C1.6121322 2.48660455 1.29037521 3.72345219 -0.55859375 5.484375 C-1.17863281 5.90203125 -1.79867187 6.3196875 -2.4375 6.75 C-3.05496094 7.17796875 -3.67242188 7.6059375 -4.30859375 8.046875 C-6 9 -6 9 -8 9 C-6.98565881 6.46414701 -6.34981128 5.21863205 -4 3.75 C-2 3 -2 3 0 3 C0 2.01 0 1.02 0 0 Z " fill="#2D354E" transform="translate(642,985)"/>
<path d="M0 0 C0.66 0.66 1.32 1.32 2 2 C0.02 5.63 -1.96 9.26 -4 13 C-4.99 12.34 -5.98 11.68 -7 11 C-5.625 9 -5.625 9 -4 7 C-3.34 7 -2.68 7 -2 7 C-2 5.68 -2 4.36 -2 3 C-1.34 3 -0.68 3 0 3 C0 2.01 0 1.02 0 0 Z " fill="#333E53" transform="translate(1611,1117)"/>
<path d="M0 0 C0.66 0 1.32 0 2 0 C1.34 2.97 0.68 5.94 0 9 C-0.99 8.67 -1.98 8.34 -3 8 C-1.125 1.125 -1.125 1.125 0 0 Z " fill="#2E384D" transform="translate(1699,1094)"/>
<path d="M0 0 C0.98484375 0.00902344 1.9696875 0.01804687 2.984375 0.02734375 C4.10585937 0.04474609 4.10585937 0.04474609 5.25 0.0625 C5.25 0.3925 5.25 0.7225 5.25 1.0625 C4.1775 1.18625 3.105 1.31 2 1.4375 C-1.59092264 1.84011368 -1.59092264 1.84011368 -3.9375 3.1875 C-5.75 4.0625 -5.75 4.0625 -8 3.6875 C-8.5775 3.48125 -9.155 3.275 -9.75 3.0625 C-9.75 2.4025 -9.75 1.7425 -9.75 1.0625 C-6.43929162 0.06140485 -3.44915231 -0.04106134 0 0 Z " fill="#575D73" transform="translate(1683.75,1021.9375)"/>
<path d="M0 0 C0 0.66 0 1.32 0 2 C-4.40914783 3.10228696 -8.48382401 3.07654536 -13 3 C-8.8341563 0.22277086 -4.9360889 -1.89849573 0 0 Z " fill="#3C445C" transform="translate(932,1020)"/>
<path d="M0 0 C0.66 0 1.32 0 2 0 C1.88637738 1.4800841 1.75877092 2.95910074 1.625 4.4375 C1.52058594 5.67306641 1.52058594 5.67306641 1.4140625 6.93359375 C1.27742188 7.61550781 1.14078125 8.29742188 1 9 C0.01 9.495 0.01 9.495 -1 10 C-2.23076923 4.58461538 -2.23076923 4.58461538 -1.0625 1.625 C-0.5365625 0.820625 -0.5365625 0.820625 0 0 Z " fill="#1F2C44" transform="translate(1361,996)"/>
<path d="M0 0 C0.66 0 1.32 0 2 0 C0.515 5.445 0.515 5.445 -1 11 C-1.66 11 -2.32 11 -3 11 C-3.39253254 6.55129785 -2.15305957 3.85756507 0 0 Z " fill="#303950" transform="translate(1428,932)"/>
<path d="M0 0 C0.99 0 1.98 0 3 0 C3 0.66 3 1.32 3 2 C-1.95 4.475 -1.95 4.475 -7 7 C-7 6.01 -7 5.02 -7 4 C-4 2 -4 2 0 2 C0 1.34 0 0.68 0 0 Z " fill="#2B344D" transform="translate(441,890)"/>
<path d="M0 0 C0.66 0.66 1.32 1.32 2 2 C1.80426122 3.99001093 1.59891765 5.9809613 1.29296875 7.95703125 C0.95395355 10.32109722 0.92547698 12.61526334 1 15 C0.34 15 -0.32 15 -1 15 C-1.02685412 12.68756208 -1.04632841 10.3750373 -1.0625 8.0625 C-1.07410156 6.77472656 -1.08570313 5.48695312 -1.09765625 4.16015625 C-1 1 -1 1 0 0 Z " fill="#1A223D" transform="translate(297,1185)"/>
<path d="M0 0 C1.9375 0.8125 1.9375 0.8125 4 2 C4.33 2.99 4.66 3.98 5 5 C7.00016466 6.20882096 7.00016466 6.20882096 9 7 C8.67 7.99 8.34 8.98 8 10 C6.65787938 8.90653119 5.32652025 7.7998425 4 6.6875 C3.2575 6.07261719 2.515 5.45773437 1.75 4.82421875 C0 3 0 3 0 0 Z " fill="#2E354E" transform="translate(1126,1182)"/>
<path d="M0 0 C0.99 0.33 1.98 0.66 3 1 C1.08864614 4.53600465 -0.62642766 6.78972846 -4 9 C-4 5.00095031 -2.27413033 3.19799578 0 0 Z " fill="#2B364F" transform="translate(1185,1148)"/>
<path d="M0 0 C2 3 2 3 1.6875 6.5625 C1 10 1 10 0 12 C-0.66 12 -1.32 12 -2 12 C-1.44687265 7.97007218 -0.8441938 3.97977076 0 0 Z " fill="#3C445C" transform="translate(1124,1128)"/>
<path d="M0 0 C0.99 0 1.98 0 3 0 C2.01 2.97 1.02 5.94 0 9 C0.66 9.33 1.32 9.66 2 10 C0.68 10 -0.64 10 -2 10 C-1.54177532 6.53058454 -1.10868317 3.32604951 0 0 Z " fill="#39445A" transform="translate(1520,1129)"/>
<path d="M0 0 C0.66 0 1.32 0 2 0 C1.67 3.3 1.34 6.6 1 10 C0.01 10 -0.98 10 -2 10 C-1.34 6.7 -0.68 3.4 0 0 Z " fill="#2E3951" transform="translate(1502,1111)"/>
<path d="M0 0 C0 0.99 0 1.98 0 3 C-0.66 2.67 -1.32 2.34 -2 2 C-1.34 1.34 -0.68 0.68 0 0 Z M-2 3 C-3.47692308 7.67692308 -3.47692308 7.67692308 -6.125 9.3125 C-7.053125 9.6528125 -7.053125 9.6528125 -8 10 C-7.37162381 6.35541809 -6.14650034 3 -2 3 Z " fill="#2D3850" transform="translate(1119,1034)"/>
<path d="M0 0 C0.66 0.33 1.32 0.66 2 1 C2 1.66 2 2.32 2 3 C-3.625 6 -3.625 6 -7 6 C-6 3 -6 3 -3.0625 1.25 C-2.051875 0.8375 -1.04125 0.425 0 0 Z " fill="#29334A" transform="translate(610,1006)"/>
<path d="M0 0 C-1.50223584 4.20626034 -4.28550034 5.73900021 -8 8 C-8 5 -8 5 -5.6875 2.3125 C-3 0 -3 0 0 0 Z " fill="#2C374E" transform="translate(1492,1176)"/>
<path d="M0 0 C0.33 1.32 0.66 2.64 1 4 C1.66 4 2.32 4 3 4 C3 6.31 3 8.62 3 11 C2.01 10.67 1.02 10.34 0 10 C0 6.7 0 3.4 0 0 Z " fill="#212A42" transform="translate(1121,1164)"/>
<path d="M0 0 C0.99 0.33 1.98 0.66 3 1 C1.02 3.31 -0.96 5.62 -3 8 C-3.33 6.68 -3.66 5.36 -4 4 C-2.0625 1.75 -2.0625 1.75 0 0 Z " fill="#1E2947" transform="translate(602,1158)"/>
<path d="M0 0 C0.99 0.33 1.98 0.66 3 1 C2.47535095 5.61691161 1.92509086 7.09987886 -1 11 C-0.67 7.37 -0.34 3.74 0 0 Z " fill="#202B43" transform="translate(1756,1107)"/>
<path d="M0 0 C0.66 0 1.32 0 2 0 C0.68938409 4.23429756 -0.94356259 8.07407404 -3 12 C-4.27099045 8.18702864 -3.45398157 6.6732166 -2 3 C-1.34 2.01 -0.68 1.02 0 0 Z " fill="#2F394F" transform="translate(1251,1089)"/>
<path d="M0 0 C-1.3937282 4.43458973 -3.60582235 6.87378374 -7 10 C-6.67506385 6.4257023 -6.36129314 4.44287547 -4.0625 1.625 C-2 0 -2 0 0 0 Z " fill="#2A344C" transform="translate(906,1066)"/>
<path d="M0 0 C3.3 0.66 6.6 1.32 10 2 C5.01222852 4.49388574 3.33016752 3.88836125 -2 3 C-1.34 2.67 -0.68 2.34 0 2 C0 1.34 0 0.68 0 0 Z " fill="#343D55" transform="translate(758,1049)"/>
<path d="M0 0 C-1.3418344 4.02550319 -3.4227573 4.88285636 -7 7 C-7.66 7 -8.32 7 -9 7 C-7.4576387 2.93377477 -4.5679954 0 0 0 Z " fill="#2D364E" transform="translate(932,1044)"/>
<path d="M0 0 C1.18851563 0.00902344 2.37703125 0.01804687 3.6015625 0.02734375 C4.51679687 0.03894531 5.43203125 0.05054688 6.375 0.0625 C6.375 0.3925 6.375 0.7225 6.375 1.0625 C4.6258503 1.40026684 2.87563855 1.73253671 1.125 2.0625 C-0.33679687 2.3409375 -0.33679687 2.3409375 -1.828125 2.625 C-4.625 3.0625 -4.625 3.0625 -8.625 3.0625 C-8.625 2.4025 -8.625 1.7425 -8.625 1.0625 C-5.74084117 -0.37957941 -3.20778472 -0.03144887 0 0 Z " fill="#1E2942" transform="translate(1303.625,1042.9375)"/>
<path d="M0 0 C3.38946688 2.25964458 3.85336716 3.20729138 5 7 C5.125 9.8125 5.125 9.8125 5 12 C4.34 12 3.68 12 3 12 C2.67 9.36 2.34 6.72 2 4 C1.34 4 0.68 4 0 4 C0 2.68 0 1.36 0 0 Z " fill="#384053" transform="translate(1704,1033)"/>
<path d="M0 0 C3.63 0.66 7.26 1.32 11 2 C11 2.66 11 3.32 11 4 C3.57142857 4.28571429 3.57142857 4.28571429 0 2 C0 1.34 0 0.68 0 0 Z " fill="#2C364C" transform="translate(344,993)"/>
<path d="M0 0 C0.66 0.33 1.32 0.66 2 1 C1.01 4.96 0.02 8.92 -1 13 C-1.33 13 -1.66 13 -2 13 C-1.85966889 11.02043559 -1.7125877 9.04134859 -1.5625 7.0625 C-1.48128906 5.96035156 -1.40007813 4.85820313 -1.31640625 3.72265625 C-1 1 -1 1 0 0 Z " fill="#293348" transform="translate(693,916)"/>
<path d="M0 0 C0.99 0 1.98 0 3 0 C4.47075246 4.41225737 5.36884358 7.48281619 4 12 C3.67 12 3.34 12 3 12 C2.01 8.04 1.02 4.08 0 0 Z " fill="#2C334D" transform="translate(656,884)"/>
<path d="M0 0 C3.80666984 1.44390925 5.26602582 3.34952803 7 7 C6.67 7.66 6.34 8.32 6 9 C4.99105628 8.07213211 3.99309093 7.13231567 3 6.1875 C2.1646875 5.40439453 2.1646875 5.40439453 1.3125 4.60546875 C0 3 0 3 0 0 Z " fill="#283449" transform="translate(1211,1176)"/>
<path d="M0 0 C1.8125 0.1875 1.8125 0.1875 4 1 C5.75 3.5625 5.75 3.5625 7 6 C6.34 6.66 5.68 7.32 5 8 C4.16382818 6.8562364 3.33113541 5.70992861 2.5 4.5625 C2.0359375 3.92441406 1.571875 3.28632812 1.09375 2.62890625 C0 1 0 1 0 0 Z " fill="#2A354B" transform="translate(1406,1174)"/>
<path d="M0 0 C0.33 0.66 0.66 1.32 1 2 C0.07421875 3.91015625 0.07421875 3.91015625 -1.3125 6.0625 C-1.76238281 6.77535156 -2.21226562 7.48820312 -2.67578125 8.22265625 C-4 10 -4 10 -6 11 C-5.55530671 5.96014269 -3.28656638 3.62365012 0 0 Z " fill="#323C55" transform="translate(821,1155)"/>
<path d="M0 0 C0.66 0 1.32 0 2 0 C1.32902328 4.19360449 -0.8558394 7.40334352 -3 11 C-3.66 10.01 -4.32 9.02 -5 8 C-4.01 7.67 -3.02 7.34 -2 7 C-1.855625 6.21625 -1.71125 5.4325 -1.5625 4.625 C-1 2 -1 2 0 0 Z " fill="#323952" transform="translate(1305,1133)"/>
<path d="M0 0 C0.99 0.33 1.98 0.66 3 1 C2.625 3.9375 2.625 3.9375 2 7 C1.01 7.495 1.01 7.495 0 8 C-0.66 8.99 -1.32 9.98 -2 11 C-1 3.57142857 -1 3.57142857 0 0 Z " fill="#3C455D" transform="translate(839,1115)"/>
<path d="M0 0 C0.66 0.33 1.32 0.66 2 1 C0.35 4.3 -1.3 7.6 -3 11 C-4.32342458 7.02972626 -3.36639254 4.88343142 -2 1 C-1.34 0.67 -0.68 0.34 0 0 Z " fill="#C2CAD8" transform="translate(1067,1100)"/>
<path d="M0 0 C0.66 0.99 1.32 1.98 2 3 C0.35830472 5.02054804 -1.30911778 7.02043058 -3 9 C-3.33 9 -3.66 9 -4 9 C-4.25 6.75 -4.25 6.75 -4 4 C-2 1.6875 -2 1.6875 0 0 Z " fill="#2A364D" transform="translate(1103,1077)"/>
<path d="M0 0 C0.66 0 1.32 0 2 0 C3.31626692 3.61973402 4 6.09567131 4 10 C3.01 9.67 2.02 9.34 1 9 C0.67 6.03 0.34 3.06 0 0 Z " fill="#353D51" transform="translate(659,1073)"/>
<path d="M0 0 C0.99 0 1.98 0 3 0 C1.62845496 2.95409701 0.01136276 5.44008376 -2 8 C-2.99 7.67 -3.98 7.34 -5 7 C-4.24172908 5.82512964 -3.46792245 4.66027408 -2.6875 3.5 C-2.25824219 2.8503125 -1.82898437 2.200625 -1.38671875 1.53125 C-0.70029297 0.77328125 -0.70029297 0.77328125 0 0 Z " fill="#333C55" transform="translate(1092,1064)"/>
<path d="M0 0 C0.33 0.99 0.66 1.98 1 3 C-1 5 -1 5 -2.9453125 5.1953125 C-4.96354167 5.13020833 -6.98177083 5.06510417 -9 5 C-8.67 4.34 -8.34 3.68 -8 3 C-5.67793475 2.29508733 -3.34406932 1.62787571 -1 1 C-0.67 0.67 -0.34 0.34 0 0 Z " fill="#1F263F" transform="translate(986,1052)"/>
<path d="M0 0 C0.66 0 1.32 0 2 0 C1.01 3.3 0.02 6.6 -1 10 C-1.66 10 -2.32 10 -3 10 C-2.25 3.375 -2.25 3.375 0 0 Z " fill="#2B364E" transform="translate(487,1005)"/>
<path d="M0 0 C0.33 0.99 0.66 1.98 1 3 C-1.75 5.0625 -1.75 5.0625 -5 7 C-6.32 6.67 -7.64 6.34 -9 6 C-6.03 4.02 -3.06 2.04 0 0 Z " fill="#343E56" transform="translate(615,970)"/>
<path d="M0 0 C0.66 0 1.32 0 2 0 C1.67 2.31 1.34 4.62 1 7 C-0.32 7.33 -1.64 7.66 -3 8 C-1.125 2.25 -1.125 2.25 0 0 Z " fill="#303953" transform="translate(1355,920)"/>
<path d="M0 0 C-1.39332574 3.36720387 -2.9789286 4.9859524 -6 7 C-6.33 6.01 -6.66 5.02 -7 4 C-3.375 0 -3.375 0 0 0 Z " fill="#313E53" transform="translate(1011,1176)"/>
<path d="M0 0 C0.66 0 1.32 0 2 0 C2.33 2.97 2.66 5.94 3 9 C2.01 8.67 1.02 8.34 0 8 C0 5.36 0 2.72 0 0 Z " fill="#1E2741" transform="translate(944,1152)"/>
<path d="M0 0 C0.66 0.66 1.32 1.32 2 2 C0.35 3.98 -1.3 5.96 -3 8 C-3.75 6.25 -3.75 6.25 -4 4 C-2.0625 1.75 -2.0625 1.75 0 0 Z " fill="#1F2A46" transform="translate(1180,1156)"/>
<path d="M0 0 C0.33 0.66 0.66 1.32 1 2 C-0.65 3.98 -2.3 5.96 -4 8 C-5.32 7.67 -6.64 7.34 -8 7 C-5.36 4.69 -2.72 2.38 0 0 Z " fill="#364259" transform="translate(902,1151)"/>
<path d="M0 0 C0.66 0.33 1.32 0.66 2 1 C1.67 3.31 1.34 5.62 1 8 C0.01 7.67 -0.98 7.34 -2 7 C-2.125 4.625 -2.125 4.625 -2 2 C-1.34 1.34 -0.68 0.68 0 0 Z " fill="#28344B" transform="translate(871,1125)"/>
<path d="M0 0 C0.66 0.99 1.32 1.98 2 3 C0.98819642 6.77126791 0.32378142 7.78414572 -3 10 C-2.49287967 6.28111761 -1.88391785 3.26545761 0 0 Z " fill="#303B55" transform="translate(1735,1119)"/>
<path d="M0 0 C1.03115279 3.26913624 0.9638984 5.86041348 0.5625 9.25 C0.46066406 10.14203125 0.35882812 11.0340625 0.25390625 11.953125 C0.12822266 12.96632813 0.12822266 12.96632813 0 14 C-2.12969485 10.80545772 -2.2390304 10.50853075 -1.6875 7 C-1.58824219 6.319375 -1.48898437 5.63875 -1.38671875 4.9375 C-1 3 -1 3 0 0 Z " fill="#3B445C" transform="translate(1662,1113)"/>
<path d="M0 0 C3.71888239 0.50712033 6.73454239 1.11608215 10 3 C10 3.66 10 4.32 10 5 C6.7 4.01 3.4 3.02 0 2 C0 1.34 0 0.68 0 0 Z " fill="#3B4458" transform="translate(521,1117)"/>
<path d="M0 0 C1.485 0.99 1.485 0.99 3 2 C2.34 5.3 1.68 8.6 1 12 C0.34 11.34 -0.32 10.68 -1 10 C-0.9765625 7.6171875 -0.9765625 7.6171875 -0.625 4.875 C-0.51414062 3.96492188 -0.40328125 3.05484375 -0.2890625 2.1171875 C-0.19367188 1.41851563 -0.09828125 0.71984375 0 0 Z " fill="#2D344F" transform="translate(1675,1064)"/>
<path d="M0 0 C0.66 0.33 1.32 0.66 2 1 C1.67 3.64 1.34 6.28 1 9 C0.01 9 -0.98 9 -2 9 C-1.125 1.125 -1.125 1.125 0 0 Z " fill="#1D2844" transform="translate(1077,1052)"/>
<path d="M0 0 C0.99 0 1.98 0 3 0 C2.45276317 3.37462715 1.9451 5.08235 0 8 C-0.66 8 -1.32 8 -2 8 C-1.34 5.36 -0.68 2.72 0 0 Z " fill="#333A52" transform="translate(1412,928)"/>
<path d="M0 0 C2.31 0.33 4.62 0.66 7 1 C7 1.66 7 2.32 7 3 C9.31 3 11.62 3 14 3 C14 3.33 14 3.66 14 4 C8.32723489 4.29341888 5.00932754 4.00559652 0 1 C0 0.67 0 0.34 0 0 Z " fill="#3D455A" transform="translate(1026,1186)"/>
<path d="M0 0 C0.33 0 0.66 0 1 0 C0.67 4.62 0.34 9.24 0 14 C-0.33 14 -0.66 14 -1 14 C-1.22226864 12.23086176 -1.42733873 10.45955629 -1.625 8.6875 C-1.74101562 7.70136719 -1.85703125 6.71523437 -1.9765625 5.69921875 C-2 3 -2 3 0 0 Z " fill="#1D2941" transform="translate(322,1180)"/>
<path d="M0 0 C1.30062431 3.81516464 0.89369853 7.27561763 0.5625 11.25 C0.46066406 12.51328125 0.35882812 13.7765625 0.25390625 15.078125 C0.17011719 16.04234375 0.08632813 17.0065625 0 18 C-0.33 18 -0.66 18 -1 18 C-1.22181406 15.56304285 -1.42791119 13.126474 -1.625 10.6875 C-1.68945312 9.99720703 -1.75390625 9.30691406 -1.8203125 8.59570312 C-2.11802847 4.7440028 -2.20763723 3.31145584 0 0 Z " fill="#656D7E" transform="translate(870,1136)"/>
<path d="M0 0 C0.66 0 1.32 0 2 0 C1.67 3.63 1.34 7.26 1 11 C-1.26609984 6.46780033 -0.92735976 4.82227075 0 0 Z " fill="#323D57" transform="translate(1572,1076)"/>
<path d="M0 0 C0.33 0 0.66 0 1 0 C1.18451025 9.41002278 1.18451025 9.41002278 0 14 C-0.33 14 -0.66 14 -1 14 C-2.51708428 4.58997722 -2.51708428 4.58997722 0 0 Z " fill="#313A4D" transform="translate(1171,1067)"/>
<path d="M0 0 C0.66 0 1.32 0 2 0 C3.32 2.64 4.64 5.28 6 8 C5.34 8.66 4.68 9.32 4 10 C4 9.01 4 8.02 4 7 C3.34 7 2.68 7 2 7 C2 5.68 2 4.36 2 3 C1.34 3 0.68 3 0 3 C0 2.01 0 1.02 0 0 Z " fill="#2F3A4F" transform="translate(651,1058)"/>
<path d="M0 0 C0.99 0 1.98 0 3 0 C1.55746343 3.36591866 -0.33264727 5.51047079 -3 8 C-3.66 7.67 -4.32 7.34 -5 7 C-4.24172908 5.82512964 -3.46792245 4.66027408 -2.6875 3.5 C-2.25824219 2.8503125 -1.82898437 2.200625 -1.38671875 1.53125 C-0.70029297 0.77328125 -0.70029297 0.77328125 0 0 Z " fill="#2B3650" transform="translate(1232,1060)"/>
<path d="M0 0 C-0.33 1.32 -0.66 2.64 -1 4 C-3.64 4.33 -6.28 4.66 -9 5 C-2.87096774 0 -2.87096774 0 0 0 Z " fill="#343E56" transform="translate(914,1025)"/>
<path d="M0 0 C2.64 0 5.28 0 8 0 C7.67 0.99 7.34 1.98 7 3 C4.36 3 1.72 3 -1 3 C-0.67 2.01 -0.34 1.02 0 0 Z " fill="#1A2442" transform="translate(1680,1023)"/>
<path d="M0 0 C0.99 0 1.98 0 3 0 C2.67 3.3 2.34 6.6 2 10 C-0.4294516 6.3558226 -0.16179575 4.28758728 0 0 Z " fill="#182140" transform="translate(1557,1152)"/>
<path d="M0 0 C0.66 0 1.32 0 2 0 C1.74438677 2.3431213 1.40729228 4.67843403 1 7 C0.01 7.495 0.01 7.495 -1 8 C-1.99 7.34 -2.98 6.68 -4 6 C-3.01 5.34 -2.02 4.68 -1 4 C-0.27617533 1.94074861 -0.27617533 1.94074861 0 0 Z " fill="#32394F" transform="translate(540,1116)"/>
<path d="M0 0 C2.64 0 5.28 0 8 0 C8 0.66 8 1.32 8 2 C8.66 2.33 9.32 2.66 10 3 C6.7 2.67 3.4 2.34 0 2 C0 1.34 0 0.68 0 0 Z " fill="#344052" transform="translate(500,1112)"/>
<path d="M0 0 C0.99 0 1.98 0 3 0 C1.375 6.75 1.375 6.75 -2 9 C-1.34 6.03 -0.68 3.06 0 0 Z " fill="#3F4961" transform="translate(429,1066)"/>
<path d="M0 0 C1.32 0.33 2.64 0.66 4 1 C4 4.96 4 8.92 4 13 C3.67 13 3.34 13 3 13 C2.80083984 11.84371094 2.80083984 11.84371094 2.59765625 10.6640625 C2.42105469 9.66117188 2.24445313 8.65828125 2.0625 7.625 C1.88847656 6.62726563 1.71445313 5.62953125 1.53515625 4.6015625 C1.12287938 2.03090344 1.12287938 2.03090344 0 0 Z " fill="#1B2540" transform="translate(1139,1053)"/>
<path d="M0 0 C0 0.99 0 1.98 0 3 C-2.8125 5.75 -2.8125 5.75 -6 8 C-6.99 7.67 -7.98 7.34 -9 7 C-6.03 4.69 -3.06 2.38 0 0 Z " fill="#313B52" transform="translate(625,962)"/>
<path d="M0 0 C2.375 0.25 2.375 0.25 5 1 C6.3125 3.0625 6.3125 3.0625 7 5 C6.01 5 5.02 5 4 5 C1.8125 2.5 1.8125 2.5 0 0 Z " fill="#2B364E" transform="translate(646,872)"/>
<path d="M0 0 C0 0.33 0 0.66 0 1 C-1.45635371 1.22174933 -2.91522956 1.42698698 -4.375 1.625 C-5.18710937 1.74101563 -5.99921875 1.85703125 -6.8359375 1.9765625 C-7.55007813 1.98429687 -8.26421875 1.99203125 -9 2 C-9.66 1.34 -10.32 0.68 -11 0 C-7.18243176 -1.37432457 -3.92744671 -0.67975039 0 0 Z " fill="#2F3A52" transform="translate(490,1258)"/>
<path d="M0 0 C2.31 0 4.62 0 7 0 C6.67 0.99 6.34 1.98 6 3 C4.35 3 2.7 3 1 3 C0.67 2.01 0.34 1.02 0 0 Z " fill="#353F53" transform="translate(690,1140)"/>
<path d="M0 0 C0.66 0 1.32 0 2 0 C1.4140625 6.15234375 1.4140625 6.15234375 1 8 C0.01 8.495 0.01 8.495 -1 9 C-0.67 6.03 -0.34 3.06 0 0 Z " fill="#333B53" transform="translate(1668,1093)"/>
<path d="M0 0 C0.66 0.33 1.32 0.66 2 1 C0.25 6.75 0.25 6.75 -2 9 C-2.25 3.375 -2.25 3.375 0 0 Z " fill="#2E374E" transform="translate(1391,1015)"/>
<path d="M0 0 C0.66 0 1.32 0 2 0 C0.52307692 4.67692308 0.52307692 4.67692308 -2.125 6.3125 C-3.053125 6.6528125 -3.053125 6.6528125 -4 7 C-2.92598892 4.08482708 -2.22189824 2.22189824 0 0 Z " fill="#29324A" transform="translate(507,1012)"/>
<path d="M0 0 C0.66 0.33 1.32 0.66 2 1 C0.7508258 4.45925163 -0.67527795 7.14693203 -3 10 C-3.33 8.68 -3.66 7.36 -4 6 C-2.68 5.34 -1.36 4.68 0 4 C0 2.68 0 1.36 0 0 Z " fill="#343D53" transform="translate(684,939)"/>
<path d="M0 0 C0.66 0 1.32 0 2 0 C1.43628586 3.26954202 0.50037734 4.82575883 -2 7 C-2.66 6.34 -3.32 5.68 -4 5 C-2.71937515 3.2925002 -1.38232443 1.62626404 0 0 Z " fill="#2E3853" transform="translate(1379,880)"/>
<path d="M0 0 C0.66 0.33 1.32 0.66 2 1 C0.68 2.65 -0.64 4.3 -2 6 C-3.32 5.67 -4.64 5.34 -6 5 C-4.02 3.35 -2.04 1.7 0 0 Z " fill="#364058" transform="translate(1389,870)"/>
<path d="M0 0 C-0.33 0.66 -0.66 1.32 -1 2 C-3.875 2.75 -3.875 2.75 -7 3 C-7.99 2.34 -8.98 1.68 -10 1 C-6.61981469 -0.04005702 -3.5219721 -0.08004482 0 0 Z " fill="#323D54" transform="translate(490,1226)"/>
<path d="M0 0 C-0.33 0.66 -0.66 1.32 -1 2 C-3.06640625 2.4140625 -3.06640625 2.4140625 -5.5625 2.625 C-6.38878906 2.69976563 -7.21507812 2.77453125 -8.06640625 2.8515625 C-9.02353516 2.92503906 -9.02353516 2.92503906 -10 3 C-9 1 -9 1 -7.25 0.375 C-4.79549443 -0.03408426 -2.4840589 -0.06900164 0 0 Z " fill="#1E2B40" transform="translate(1466,1192)"/>
<path d="M0 0 C0.33 1.32 0.66 2.64 1 4 C-1.475 5.485 -1.475 5.485 -4 7 C-4.66 6.34 -5.32 5.68 -6 5 C-4.02 3.35 -2.04 1.7 0 0 Z " fill="#2F3B52" transform="translate(1175,1161)"/>
<path d="M0 0 C0.33 0 0.66 0 1 0 C1.33 2.97 1.66 5.94 2 9 C1.01 8.67 0.02 8.34 -1 8 C-1.125 2.25 -1.125 2.25 0 0 Z " fill="#323C53" transform="translate(973,1151)"/>
<path d="M0 0 C0.66 0.99 1.32 1.98 2 3 C1.01 4.32 0.02 5.64 -1 7 C-1.99 6.67 -2.98 6.34 -4 6 C-2.68 4.02 -1.36 2.04 0 0 Z " fill="#2E3953" transform="translate(1281,1140)"/>
<path d="M0 0 C0.66 0 1.32 0 2 0 C2 2.31 2 4.62 2 7 C1.01 7.33 0.02 7.66 -1 8 C-0.67 5.36 -0.34 2.72 0 0 Z " fill="#313A54" transform="translate(1126,1120)"/>
<path d="M0 0 C0.33 0 0.66 0 1 0 C1 2.64 1 5.28 1 8 C0.01 8.33 -0.98 8.66 -2 9 C-1.125 1.125 -1.125 1.125 0 0 Z " fill="#1B2645" transform="translate(1399,1115)"/>
<path d="M0 0 C1.485 0.99 1.485 0.99 3 2 C2.42415568 4.38564077 1.77772405 6.66682784 1 9 C0.34 9 -0.32 9 -1 9 C-0.67 6.03 -0.34 3.06 0 0 Z " fill="#303B55" transform="translate(1033,1090)"/>
<path d="M0 0 C0.66 0 1.32 0 2 0 C2 2.31 2 4.62 2 7 C1.01 7 0.02 7 -1 7 C-0.67 4.69 -0.34 2.38 0 0 Z " fill="#2C364E" transform="translate(1136,1085)"/>
<path d="M0 0 C0.66 0 1.32 0 2 0 C1.75 2.375 1.75 2.375 1 5 C-1.0625 6.3125 -1.0625 6.3125 -3 7 C-1.125 2.25 -1.125 2.25 0 0 Z " fill="#2D3850" transform="translate(1413,1073)"/>
<path d="M0 0 C-1.39332574 3.36720387 -2.9789286 4.9859524 -6 7 C-6 4 -6 4 -4.125 1.8125 C-2 0 -2 0 0 0 Z " fill="#1E2841" transform="translate(1276,1058)"/>
<path d="M0 0 C0 0.99 0 1.98 0 3 C-3.22791555 5.1519437 -4.28400809 5.20086443 -8 5 C-5.44008376 2.98863724 -2.95409701 1.37154504 0 0 Z " fill="#2B364E" transform="translate(594,984)"/>
<path d="M0 0 C0.66 0.33 1.32 0.66 2 1 C1.34 3.31 0.68 5.62 0 8 C-0.99 7.67 -1.98 7.34 -3 7 C-2.38722388 4.03824877 -1.74627478 2.61941217 0 0 Z " fill="#313C53" transform="translate(360,969)"/>
<path d="M0 0 C0.66 0 1.32 0 2 0 C1.46930939 3.82097239 0.50298434 6.06171403 -2 9 C-2.33 7.68 -2.66 6.36 -3 5 C-2.01 4.67 -1.02 4.34 0 4 C-0.33 3.01 -0.66 2.02 -1 1 C-0.67 0.67 -0.34 0.34 0 0 Z " fill="#2D364C" transform="translate(688,931)"/>
<path d="M0 0 C2.31 0 4.62 0 7 0 C7 0.66 7 1.32 7 2 C4.69 2.33 2.38 2.66 0 3 C0 2.01 0 1.02 0 0 Z " fill="#303851" transform="translate(488,869)"/>
<path d="M0 0 C-1 3 -1 3 -3.0625 4.1875 C-3.701875 4.455625 -4.34125 4.72375 -5 5 C-5 3.68 -5 2.36 -5 1 C-3 0 -3 0 0 0 Z " fill="#2D364F" transform="translate(1713,1182)"/>
<path d="M0 0 C-0.33 0.99 -0.66 1.98 -1 3 C-4.3 2.67 -7.6 2.34 -11 2 C-11 1.67 -11 1.34 -11 1 C-3.375 0 -3.375 0 0 0 Z " fill="#525C6F" transform="translate(804,1172)"/>
<path d="M0 0 C-1.29299694 2.88437779 -2.65941363 4.87219421 -5 7 C-5.33 6.01 -5.66 5.02 -6 4 C-2.25 0 -2.25 0 0 0 Z " fill="#2D374E" transform="translate(635,1173)"/>
<path d="M0 0 C0.66 0 1.32 0 2 0 C2.33 2.31 2.66 4.62 3 7 C2.01 7.495 2.01 7.495 1 8 C-0.35439668 5.29120665 -0.06501451 2.99066732 0 0 Z " fill="#3C455C" transform="translate(1342,1157)"/>
<path d="M0 0 C0.66 0.33 1.32 0.66 2 1 C0.25 4.875 0.25 4.875 -2 6 C-2.66 5.34 -3.32 4.68 -4 4 C-2.68 2.68 -1.36 1.36 0 0 Z " fill="#323C55" transform="translate(343,1148)"/>
<path d="M0 0 C0.66 0 1.32 0 2 0 C1.34 2.31 0.68 4.62 0 7 C-0.99 6.34 -1.98 5.68 -3 5 C-1.625 2.5 -1.625 2.5 0 0 Z " fill="#29334B" transform="translate(795,1110)"/>
<path d="M0 0 C0.66 0 1.32 0 2 0 C1.34 2.31 0.68 4.62 0 7 C-0.99 6.67 -1.98 6.34 -3 6 C-1.125 1.125 -1.125 1.125 0 0 Z " fill="#2C374D" transform="translate(1245,1101)"/>
<path d="M0 0 C0.66 0.99 1.32 1.98 2 3 C1.01 4.98 0.02 6.96 -1 9 C-1.66 8.67 -2.32 8.34 -3 8 C-1.125 2.25 -1.125 2.25 0 0 Z " fill="#3D465D" transform="translate(849,1090)"/>
<path d="M0 0 C0.66 0.99 1.32 1.98 2 3 C1.01 4.98 0.02 6.96 -1 9 C-1.66 8.67 -2.32 8.34 -3 8 C-1.125 2.25 -1.125 2.25 0 0 Z " fill="#39425A" transform="translate(944,1089)"/>
<path d="M0 0 C0.66 0 1.32 0 2 0 C1.34 1.98 0.68 3.96 0 6 C-0.99 6 -1.98 6 -3 6 C-2.42655063 3.13275314 -2.1385485 2.1385485 0 0 Z " fill="#2D374D" transform="translate(888,1088)"/>
<path d="M0 0 C0.66 0 1.32 0 2 0 C2.1875 2.8125 2.1875 2.8125 2 6 C1.01 6.99 0.02 7.98 -1 9 C-0.67 6.03 -0.34 3.06 0 0 Z " fill="#2C344E" transform="translate(1570,1083)"/>
<path d="M0 0 C0.66 0 1.32 0 2 0 C1.125 4.75 1.125 4.75 0 7 C-0.66 7 -1.32 7 -2 7 C-1.125 2.25 -1.125 2.25 0 0 Z " fill="#2A334C" transform="translate(739,1066)"/>
<path d="M0 0 C1.0326802 2.78823655 1.04509293 3.8677274 0.0625 6.75 C-0.288125 7.4925 -0.63875 8.235 -1 9 C-1.33 9 -1.66 9 -2 9 C-2.25 3.375 -2.25 3.375 0 0 Z " fill="#1F2B42" transform="translate(1461,1062)"/>
<path d="M0 0 C0.33 0 0.66 0 1 0 C1.125 5.75 1.125 5.75 0 8 C-0.66 8 -1.32 8 -2 8 C-1.125 1.125 -1.125 1.125 0 0 Z " fill="#1D2942" transform="translate(1614,1049)"/>
<path d="M0 0 C0.66 0.99 1.32 1.98 2 3 C1.01 3.99 0.02 4.98 -1 6 C-1.99 5.67 -2.98 5.34 -4 5 C-2.68 3.35 -1.36 1.7 0 0 Z " fill="#2D3952" transform="translate(876,1052)"/>
<path d="M0 0 C0.66 0 1.32 0 2 0 C0.92598892 2.91517292 0.22189824 4.77810176 -2 7 C-2.33 6.01 -2.66 5.02 -3 4 C-1.6875 1.8125 -1.6875 1.8125 0 0 Z " fill="#303A50" transform="translate(1369,1054)"/>
<path d="M0 0 C2 3 2 3 1.625 5.6875 C1.41875 6.450625 1.2125 7.21375 1 8 C0.01 8 -0.98 8 -2 8 C-1.47731534 5.23723823 -0.89130413 2.6739124 0 0 Z " fill="#374059" transform="translate(1581,1048)"/>
<path d="M0 0 C0.66 0 1.32 0 2 0 C1.34 1.98 0.68 3.96 0 6 C-0.99 6 -1.98 6 -3 6 C-1.125 1.125 -1.125 1.125 0 0 Z " fill="#273247" transform="translate(1373,1047)"/>
<path d="M0 0 C0.66 0.33 1.32 0.66 2 1 C1.67 2.98 1.34 4.96 1 7 C0.01 7 -0.98 7 -2 7 C-1.42415568 4.61435923 -0.77772405 2.33317216 0 0 Z " fill="#1F2C43" transform="translate(1617,1041)"/>
<path d="M0 0 C0.66 0 1.32 0 2 0 C2.1875 2.875 2.1875 2.875 2 6 C1.01 6.66 0.02 7.32 -1 8 C-0.67 5.36 -0.34 2.72 0 0 Z " fill="#374259" transform="translate(1325,1006)"/>
<path d="M0 0 C0.66 0.99 1.32 1.98 2 3 C1.67 3.66 1.34 4.32 1 5 C0.34 5 -0.32 5 -1 5 C-1 5.66 -1 6.32 -1 7 C-1.66 7 -2.32 7 -3 7 C-1.125 1.125 -1.125 1.125 0 0 Z " fill="#313C53" transform="translate(720,993)"/>
<path d="M0 0 C4.875 2.625 4.875 2.625 6 6 C4.125 5.8125 4.125 5.8125 2 5 C0.75 2.4375 0.75 2.4375 0 0 Z " fill="#343B52" transform="translate(751,986)"/>
<path d="M0 0 C0.66 0 1.32 0 2 0 C1.25 5.75 1.25 5.75 -1 8 C-2 6 -2 6 -1.0625 2.875 C-0.5365625 1.451875 -0.5365625 1.451875 0 0 Z " fill="#2D364E" transform="translate(500,974)"/>
<path d="M0 0 C0.66 0.66 1.32 1.32 2 2 C1.01 3.98 0.02 5.96 -1 8 C-1.66 7.67 -2.32 7.34 -3 7 C-2.38722388 4.03824877 -1.74627478 2.61941217 0 0 Z " fill="#313951" transform="translate(515,946)"/>
<path d="M0 0 C0.66 0.99 1.32 1.98 2 3 C0.71034824 4.37562854 -0.62689293 5.70766393 -2 7 C-2.66 7 -3.32 7 -4 7 C-2.79618552 4.50638429 -1.54571278 2.31856917 0 0 Z " fill="#343F57" transform="translate(645,940)"/>
<path d="M0 0 C0.66 0.99 1.32 1.98 2 3 C1.01 4.98 0.02 6.96 -1 9 C-1.66 9 -2.32 9 -3 9 C-2.01 6.03 -1.02 3.06 0 0 Z " fill="#333C52" transform="translate(1351,929)"/>
<path d="M0 0 C3.28212246 0.43761633 4.84832931 1.52557871 7 4 C6.34 4.66 5.68 5.32 5 6 C4.34 5.01 3.68 4.02 3 3 C0.94996045 1.80767387 0.94996045 1.80767387 -1 1 C-0.67 0.67 -0.34 0.34 0 0 Z " fill="#2C364E" transform="translate(537,896)"/>
<path d="M0 0 C0.33 0 0.66 0 1 0 C0.67 2.97 0.34 5.94 0 9 C-0.66 9 -1.32 9 -2 9 C-1.125 2.25 -1.125 2.25 0 0 Z " fill="#29324B" transform="translate(695,888)"/>
<path d="M0 0 C0.66 0 1.32 0 2 0 C4.09230769 4.43076923 4.09230769 4.43076923 3.625 7.3125 C3.41875 7.869375 3.2125 8.42625 3 9 C3 8.01 3 7.02 3 6 C2.34 6 1.68 6 1 6 C0.67 4.02 0.34 2.04 0 0 Z " fill="#3B4357" transform="translate(691,878)"/>
</svg>
